<svg width="24" height="24" viewBox="0 0 24 24" fill="none" xmlns="http://www.w3.org/2000/svg">
<path d="M19.5 23.25V16.985C22.3279 14.3652 23.2616 10.2802 21.8526 6.69208C20.4436 3.10391 16.9799 0.745664 13.125 0.750006C5.621 0.750006 4.3 7.24501 1.5 14.25H4.5V17.25C4.5 18.9069 5.84315 20.25 7.5 20.25H9V23.25" stroke="#2A324D" stroke-width="1.5" stroke-linecap="round" stroke-linejoin="round"/>
<path fill-rule="evenodd" clip-rule="evenodd" d="M12.75 12C13.5784 12 14.25 11.3284 14.25 10.5C14.25 9.67157 13.5784 9 12.75 9C11.9216 9 11.25 9.67157 11.25 10.5C11.25 11.3284 11.9216 12 12.75 12Z" stroke="#2A324D" stroke-width="1.5" stroke-linecap="round" stroke-linejoin="round"/>
<path fill-rule="evenodd" clip-rule="evenodd" d="M11.4758 4.70008L11.0338 6.15008C10.8824 6.6505 10.3693 6.94814 9.8598 6.83108L8.3878 6.49008C7.8151 6.36102 7.22512 6.62005 6.93255 7.12901C6.63998 7.63797 6.71305 8.27815 7.1128 8.70808L8.1438 9.81908C8.50075 10.2029 8.50075 10.7972 8.1438 11.1811L7.1128 12.2921C6.71305 12.722 6.63998 13.3622 6.93255 13.8712C7.22512 14.3801 7.8151 14.6391 8.3878 14.5101L9.8598 14.1691C10.3693 14.052 10.8824 14.3497 11.0338 14.8501L11.4758 16.3031C11.6445 16.8658 12.1623 17.2512 12.7498 17.2512C13.3373 17.2512 13.8551 16.8658 14.0238 16.3031L14.4658 14.8501C14.6171 14.3497 15.1303 14.052 15.6398 14.1691L17.1118 14.5101C17.6845 14.6391 18.2745 14.3801 18.567 13.8712C18.8596 13.3622 18.7865 12.722 18.3868 12.2921L17.3558 11.1811C16.9988 10.7972 16.9988 10.2029 17.3558 9.81908L18.3868 8.70808C18.7865 8.27815 18.8596 7.63797 18.567 7.12901C18.2745 6.62005 17.6845 6.36102 17.1118 6.49008L15.6398 6.83108C15.1303 6.94814 14.6171 6.6505 14.4658 6.15008L14.0238 4.70008C13.8551 4.13736 13.3373 3.75195 12.7498 3.75195C12.1623 3.75195 11.6445 4.13736 11.4758 4.70008Z" stroke="#2A324D" stroke-width="1.5" stroke-linecap="round" stroke-linejoin="round"/>
</svg>
