<svg width="29" height="28" viewBox="0 0 29 28" fill="none" xmlns="http://www.w3.org/2000/svg">
<path d="M4.19263 21.875V18.9315C4.19263 18.6242 4.44246 18.375 4.75064 18.375H22.9394C23.2476 18.375 23.4975 18.6242 23.4975 18.9315V21" stroke="#37A8EB" stroke-width="1.5" stroke-linecap="round" stroke-linejoin="round"/>
<path d="M13.844 14.875V21.875" stroke="#37A8EB" stroke-width="1.5" stroke-linecap="round" stroke-linejoin="round"/>
<path fill-rule="evenodd" clip-rule="evenodd" d="M4.1927 27.125C5.6464 27.125 6.82486 25.9497 6.82486 24.5C6.82486 23.0503 5.6464 21.875 4.1927 21.875C2.739 21.875 1.56055 23.0503 1.56055 24.5C1.56055 25.9497 2.739 27.125 4.1927 27.125Z" stroke="#37A8EB" stroke-width="1.5" stroke-linecap="round" stroke-linejoin="round"/>
<path d="M15.5987 4.375H13.2204C12.4686 4.37552 11.8227 4.90746 11.68 5.64356C11.5374 6.37966 11.938 7.11331 12.6354 7.39317L15.05 8.35567C15.749 8.63455 16.1511 9.3691 16.0083 10.1063C15.8655 10.8436 15.218 11.3759 14.4651 11.375H12.0891" stroke="#37A8EB" stroke-width="1.5" stroke-linecap="round" stroke-linejoin="round"/>
<path d="M13.844 4.375V3.5" stroke="#37A8EB" stroke-width="1.5" stroke-linecap="round" stroke-linejoin="round"/>
<path d="M13.844 12.25V11.375" stroke="#37A8EB" stroke-width="1.5" stroke-linecap="round" stroke-linejoin="round"/>
<path fill-rule="evenodd" clip-rule="evenodd" d="M13.844 14.875C17.7206 14.875 20.8631 11.741 20.8631 7.875C20.8631 4.00901 17.7206 0.875 13.844 0.875C9.9675 0.875 6.82495 4.00901 6.82495 7.875C6.82495 11.741 9.9675 14.875 13.844 14.875Z" stroke="#37A8EB" stroke-width="1.5" stroke-linecap="round" stroke-linejoin="round"/>
<path fill-rule="evenodd" clip-rule="evenodd" d="M11.2119 21.875H16.4762V27.125H11.2119V21.875Z" stroke="#37A8EB" stroke-width="1.5" stroke-linecap="round" stroke-linejoin="round"/>
<path fill-rule="evenodd" clip-rule="evenodd" d="M19.9856 27.125H27.0047L23.4951 21L19.9856 27.125V27.125Z" stroke="#37A8EB" stroke-width="1.5" stroke-linecap="round" stroke-linejoin="round"/>
</svg>
