<svg width="28" height="28" viewBox="0 0 28 28" fill="none" xmlns="http://www.w3.org/2000/svg">
<path d="M0.755371 2.58655L2.51014 4.79388V10.0054C2.46335 11.9747 4.75274 13.7387 6.89589 15.5494" stroke="#37A8EB" stroke-width="1.5" stroke-linecap="round" stroke-linejoin="round"/>
<path d="M5.99737 8.58433L8.06682 10.6983C8.42208 11.062 8.94489 11.209 9.43832 11.084C9.93175 10.9591 10.3208 10.581 10.459 10.0924C10.5972 9.60372 10.4635 9.07867 10.1082 8.715L6.88996 5.44017V3.73333C6.71561 2.71058 6.32565 1.73635 5.74585 0.875" stroke="#37A8EB" stroke-width="1.5" stroke-linecap="round" stroke-linejoin="round"/>
<path d="M6.89697 9.49438V23.6251C6.89697 24.5916 7.68261 25.3751 8.65174 25.3751H17.4256" stroke="#37A8EB" stroke-width="1.5" stroke-linecap="round" stroke-linejoin="round"/>
<path d="M27.077 25.4123L25.3223 23.205V17.9947C25.3632 16.2925 23.6599 14.7443 21.8127 13.188V19.3923L19.7655 17.3017C19.2163 16.7395 18.3142 16.7277 17.7504 17.2754C17.1867 17.8231 17.1749 18.7228 17.7241 19.285L20.947 22.561V24.2667C21.1223 25.2877 21.5122 26.2603 22.0912 27.1203" stroke="#37A8EB" stroke-width="1.5" stroke-linecap="round" stroke-linejoin="round"/>
<path d="M15.0601 21H10.4065" stroke="#37A8EB" stroke-width="1.5" stroke-linecap="round" stroke-linejoin="round"/>
<path d="M12.1613 16.625H10.4065" stroke="#37A8EB" stroke-width="1.5" stroke-linecap="round" stroke-linejoin="round"/>
<path d="M23.5674 6.125C23.5674 9.0245 21.2105 11.375 18.3031 11.375C15.3957 11.375 13.0388 9.0245 13.0388 6.125C13.0388 3.22551 15.3957 0.875 18.3031 0.875" stroke="#37A8EB" stroke-width="1.5" stroke-linecap="round" stroke-linejoin="round"/>
<path d="M23.5673 2.1864L18.771 6.96973C18.6471 7.09398 18.4787 7.16385 18.303 7.16385C18.1273 7.16385 17.9589 7.09398 17.8351 6.96973L16.3271 5.46473" stroke="#37A8EB" stroke-width="1.5" stroke-linecap="round" stroke-linejoin="round"/>
</svg>
