<svg width="29" height="28" viewBox="0 0 29 28" fill="none" xmlns="http://www.w3.org/2000/svg">
<path fill-rule="evenodd" clip-rule="evenodd" d="M22.4976 9.04167C24.5166 9.04167 26.1533 7.40937 26.1533 5.39583C26.1533 3.3823 24.5166 1.75 22.4976 1.75C20.4785 1.75 18.8418 3.3823 18.8418 5.39583C18.8418 7.40937 20.4785 9.04167 22.4976 9.04167Z" stroke="#37A8EB" stroke-width="1.5" stroke-linecap="round" stroke-linejoin="round"/>
<path d="M25.083 7.97302L27.6157 10.5" stroke="#37A8EB" stroke-width="1.5" stroke-linecap="round" stroke-linejoin="round"/>
<path d="M15.3324 8.75H3.04896C2.07983 8.75 1.29419 7.9665 1.29419 7V5.25C1.29419 4.2835 2.07983 3.5 3.04896 3.5H15.3324" stroke="#37A8EB" stroke-width="1.5" stroke-linecap="round" stroke-linejoin="round"/>
<path d="M3.48776 13.125C3.73005 13.125 3.92646 13.3209 3.92646 13.5625C3.92646 13.8041 3.73005 14 3.48776 14C3.24548 14 3.04907 13.8041 3.04907 13.5625C3.04907 13.3209 3.24548 13.125 3.48776 13.125" stroke="#37A8EB" stroke-width="1.5" stroke-linecap="round" stroke-linejoin="round"/>
<path d="M7.43579 14H21.474" stroke="#37A8EB" stroke-width="1.5" stroke-linecap="round" stroke-linejoin="round"/>
<path d="M3.48776 19.25C3.73005 19.25 3.92646 19.4459 3.92646 19.6875C3.92646 19.9291 3.73005 20.125 3.48776 20.125C3.24548 20.125 3.04907 19.9291 3.04907 19.6875C3.04907 19.4459 3.24548 19.25 3.48776 19.25" stroke="#37A8EB" stroke-width="1.5" stroke-linecap="round" stroke-linejoin="round"/>
<path d="M7.43579 20.125H21.474" stroke="#37A8EB" stroke-width="1.5" stroke-linecap="round" stroke-linejoin="round"/>
<path d="M3.48776 25.375C3.73005 25.375 3.92646 25.5709 3.92646 25.8125C3.92646 26.0541 3.73005 26.25 3.48776 26.25C3.24548 26.25 3.04907 26.0541 3.04907 25.8125C3.04907 25.5709 3.24548 25.375 3.48776 25.375" stroke="#37A8EB" stroke-width="1.5" stroke-linecap="round" stroke-linejoin="round"/>
<path d="M7.43579 26.25H21.474" stroke="#37A8EB" stroke-width="1.5" stroke-linecap="round" stroke-linejoin="round"/>
</svg>
