<svg width="29" height="28" viewBox="0 0 29 28" fill="none" xmlns="http://www.w3.org/2000/svg">
<path d="M1.75537 2.58655L3.51014 4.79388V10.0054C3.46335 11.9747 5.75274 13.7387 7.89589 15.5494" stroke="#37A8EB" stroke-width="1.5" stroke-linecap="round" stroke-linejoin="round"/>
<path d="M6.99737 8.58433L9.06682 10.6983C9.42208 11.062 9.94489 11.209 10.4383 11.084C10.9317 10.9591 11.3208 10.581 11.459 10.0924C11.5972 9.60372 11.4635 9.07867 11.1082 8.715L7.88996 5.44017V3.73333C7.71561 2.71058 7.32565 1.73635 6.74585 0.875" stroke="#37A8EB" stroke-width="1.5" stroke-linecap="round" stroke-linejoin="round"/>
<path d="M7.89697 9.49438V23.6251C7.89697 24.5916 8.68261 25.3751 9.65174 25.3751H18.4256" stroke="#37A8EB" stroke-width="1.5" stroke-linecap="round" stroke-linejoin="round"/>
<path d="M28.077 25.4123L26.3223 23.205V17.9947C26.3632 16.2925 24.6599 14.7443 22.8127 13.188V19.3923L20.7655 17.3017C20.2163 16.7395 19.3142 16.7277 18.7504 17.2754C18.1867 17.8231 18.1749 18.7228 18.7241 19.285L21.947 22.561V24.2667C22.1223 25.2877 22.5122 26.2603 23.0912 27.1203" stroke="#37A8EB" stroke-width="1.5" stroke-linecap="round" stroke-linejoin="round"/>
<path d="M16.0601 21H11.4065" stroke="#37A8EB" stroke-width="1.5" stroke-linecap="round" stroke-linejoin="round"/>
<path d="M13.1613 16.625H11.4065" stroke="#37A8EB" stroke-width="1.5" stroke-linecap="round" stroke-linejoin="round"/>
<path d="M24.5674 6.125C24.5674 9.0245 22.2105 11.375 19.3031 11.375C16.3957 11.375 14.0388 9.0245 14.0388 6.125C14.0388 3.22551 16.3957 0.875 19.3031 0.875" stroke="#37A8EB" stroke-width="1.5" stroke-linecap="round" stroke-linejoin="round"/>
<path d="M24.5673 2.1864L19.771 6.96973C19.6471 7.09398 19.4787 7.16385 19.303 7.16385C19.1273 7.16385 18.9589 7.09398 18.8351 6.96973L17.3271 5.46473" stroke="#37A8EB" stroke-width="1.5" stroke-linecap="round" stroke-linejoin="round"/>
</svg>
