<svg width="18" height="14" viewBox="0 0 18 14" fill="none" xmlns="http://www.w3.org/2000/svg">
<path d="M12.3255 3.98462H15.2784C15.822 3.98462 16.2626 4.43097 16.2626 4.98157V11.9603C16.2626 12.5109 15.822 12.9572 15.2784 12.9572H6.41983C5.87622 12.9572 5.43555 12.5109 5.43555 11.9603V9.97233" stroke="#37A8EB" stroke-width="1.5" stroke-linecap="round" stroke-linejoin="round"/>
<path d="M12.3257 6.97754H16.2628" stroke="#37A8EB" stroke-width="1.5" stroke-linecap="round" stroke-linejoin="round"/>
<path fill-rule="evenodd" clip-rule="evenodd" d="M1.49854 2.49585C1.49854 1.66742 2.17011 0.99585 2.99854 0.99585H10.8256C11.6541 0.99585 12.3256 1.66742 12.3256 2.49585V8.46845C12.3256 9.29687 11.6541 9.96845 10.8256 9.96845H2.99854C2.17011 9.96845 1.49854 9.29687 1.49854 8.46845V2.49585Z" stroke="#37A8EB" stroke-width="1.5" stroke-linecap="round" stroke-linejoin="round"/>
<path d="M1.49854 3.98682H12.3256" stroke="#37A8EB" stroke-width="1.5" stroke-linecap="round" stroke-linejoin="round"/>
</svg>
