<svg width="35" height="34" viewBox="0 0 35 34" fill="none" xmlns="http://www.w3.org/2000/svg">
<path fill-rule="evenodd" clip-rule="evenodd" d="M17.6141 0C8.31244 0 0.771973 7.54046 0.771973 16.8421C0.771973 26.1437 8.31244 33.6842 17.6141 33.6842C26.9157 33.6842 34.4562 26.1437 34.4562 16.8421C34.4562 7.54046 26.9157 0 17.6141 0ZM8.85739 13.9493H12.6742V25.4172H8.85739V13.9493ZM12.9254 10.4018C12.9006 9.27735 12.0966 8.42093 10.7909 8.42093C9.48517 8.42093 8.63155 9.27735 8.63155 10.4018C8.63155 11.5029 9.45994 12.384 10.7413 12.384H10.7657C12.0966 12.384 12.9254 11.5029 12.9254 10.4018ZM22.0444 13.6801C24.556 13.6801 26.4389 15.3195 26.4389 18.8419L26.4388 25.4172H22.6221V19.2819C22.6221 17.7408 22.0698 16.6893 20.6881 16.6893C19.6337 16.6893 19.0056 17.3982 18.7297 18.0829C18.6288 18.3283 18.604 18.6702 18.604 19.0129V25.4175H14.7868C14.7868 25.4175 14.8371 15.0257 14.7868 13.9496H18.604V15.574C19.1106 14.7931 20.0179 13.6801 22.0444 13.6801Z" fill="#37A8EB"/>
</svg>
