<svg width="35" height="34" viewBox="0 0 35 34" fill="none" xmlns="http://www.w3.org/2000/svg">
<path fill-rule="evenodd" clip-rule="evenodd" d="M17.386 33.6842C26.6877 33.6842 34.2281 26.1437 34.2281 16.8421C34.2281 7.54046 26.6877 0 17.386 0C8.08441 0 0.543945 7.54046 0.543945 16.8421C0.543945 26.1437 8.08441 33.6842 17.386 33.6842ZM17.6205 15.8968C16.3048 15.8968 9.52621 12.0528 9.52621 12.0528V11.4526C9.52621 10.7088 10.1298 10.1052 10.8749 10.1052H24.3661C25.1119 10.1052 25.7155 10.7088 25.7155 11.4526L25.7047 12.1263C25.7047 12.1263 18.9996 15.8968 17.6205 15.8968ZM25.7047 14.1473C25.7047 14.1473 19.0629 17.7494 17.6205 17.7494C16.3048 17.7494 9.53632 14.1473 9.53699 14.1473L9.52621 22.2315C9.52621 22.9752 10.1305 23.5789 10.8749 23.5789H24.3661C25.1119 23.5789 25.7155 22.9752 25.7155 22.2315L25.7047 14.1473Z" fill="#37A8EB"/>
</svg>
