<svg width="34" height="34" viewBox="0 0 34 34" fill="none" xmlns="http://www.w3.org/2000/svg">
<path fill-rule="evenodd" clip-rule="evenodd" d="M0 16.8421C0 7.54046 7.54046 0 16.8421 0C26.1437 0 33.6842 7.54046 33.6842 16.8421C33.6842 26.1437 26.1437 33.6842 16.8421 33.6842C7.54046 33.6842 0 26.1437 0 16.8421ZM14.1336 12.3066L8.74131 9.64235C8.69518 9.61953 8.65119 9.60876 8.61146 9.60876C8.55485 9.60876 8.50698 9.63076 8.47329 9.67091C8.44032 9.71017 8.42099 9.76694 8.42099 9.83796V21.2755C8.42099 21.4702 8.56514 21.7006 8.74131 21.7876L13.7244 24.2497C13.7937 24.2839 13.8596 24.3001 13.9192 24.3001C14.0871 24.3001 14.2049 24.1718 14.2049 23.9563V12.4206C14.2049 12.3723 14.1773 12.3282 14.1336 12.3066ZM25.2918 24.246L20.4496 21.8536L25.7723 13.3068V23.9525C25.7723 24.2445 25.5561 24.3766 25.2918 24.246ZM14.7161 13.1627V19.0243L19.9888 21.6294L14.7161 13.1627ZM20.149 9.56325L25.6454 12.2789C25.7139 12.3127 25.7382 12.3972 25.6981 12.4617L20.289 21.1475L16.5072 15.0748L19.895 9.6348C19.931 9.57703 19.9975 9.54385 20.0644 9.54385C20.0662 9.54385 20.0679 9.54439 20.0697 9.54445C20.0969 9.54515 20.124 9.55089 20.149 9.56325Z" fill="#37A8EB"/>
</svg>
