<svg width="34" height="34" viewBox="0 0 34 34" fill="none" xmlns="http://www.w3.org/2000/svg">
<path fill-rule="evenodd" clip-rule="evenodd" d="M17.158 0C7.85638 0 0.315918 7.54046 0.315918 16.8421C0.315918 26.1437 7.85638 33.6842 17.158 33.6842C26.4597 33.6842 34.0001 26.1437 34.0001 16.8421C34.0001 7.54046 26.4597 0 17.158 0ZM16.6888 14.2722L16.6534 13.6894C16.5474 12.179 17.4781 10.7993 18.9507 10.2641C19.4926 10.0739 20.4115 10.0501 21.0123 10.2166C21.2479 10.2879 21.6956 10.5258 22.0137 10.7399L22.5909 11.1324L23.2271 10.9302C23.5805 10.8231 24.0517 10.6447 24.2638 10.5258C24.4641 10.4188 24.6408 10.3593 24.6408 10.395C24.6408 10.5972 24.2049 11.287 23.8397 11.6676C23.3449 12.2028 23.4863 12.2503 24.4876 11.8935C25.0884 11.6913 25.1002 11.6913 24.9824 11.9173C24.9117 12.0363 24.5465 12.4525 24.1578 12.8331C23.498 13.4872 23.4627 13.5586 23.4627 14.1057C23.4627 14.9501 23.0621 16.7103 22.6616 17.6737C21.9194 19.4815 20.329 21.3488 18.7386 22.2883C16.5003 23.6085 13.5198 23.9415 11.0105 23.1684C10.1741 22.9068 8.73682 22.2408 8.73682 22.1218C8.73682 22.0861 9.1727 22.0386 9.70283 22.0267C10.8102 22.0029 11.9176 21.6937 12.8601 21.1466L13.4962 20.766L12.7658 20.5162C11.7291 20.1594 10.7984 19.3388 10.5628 18.5657C10.4921 18.316 10.5157 18.3041 11.1754 18.3041L11.8587 18.2922L11.2814 18.0186C10.5982 17.6737 9.97379 17.0909 9.66749 16.4963C9.44366 16.0681 9.16092 14.9858 9.24339 14.9026C9.26695 14.8669 9.51434 14.9382 9.79708 15.0334C10.6099 15.3307 10.716 15.2594 10.2447 14.7598C9.36119 13.8559 9.09024 12.512 9.51434 11.2394L9.71461 10.6685L10.4921 11.4416C12.0825 12.9996 13.9557 13.9273 16.0998 14.2008L16.6888 14.2722Z" fill="#37A8EB"/>
</svg>
