<svg width="24" height="16" viewBox="0 0 24 16" fill="none" xmlns="http://www.w3.org/2000/svg">
<path fill-rule="evenodd" clip-rule="evenodd" d="M11.9998 0.5C8.99315 0.522722 6.11865 1.73903 4.00882 3.88131C1.89899 6.02358 0.726687 8.91631 0.749849 11.923V14C0.749849 14.8284 1.42142 15.5 2.24985 15.5H21.7498C22.5783 15.5 23.2498 14.8284 23.2498 14V11.92C23.2964 5.66001 18.2598 0.547319 11.9998 0.5Z" stroke="white" stroke-linecap="round" stroke-linejoin="round"/>
<path d="M9 15.5V14.75C9 13.0931 10.3431 11.75 12 11.75C13.6569 11.75 15 13.0931 15 14.75V15.5" stroke="white" stroke-linecap="round" stroke-linejoin="round"/>
<path d="M14.25 5.00305L12 11.7531" stroke="white" stroke-linecap="round" stroke-linejoin="round"/>
<path d="M4.875 11C4.66789 11 4.5 11.1679 4.5 11.375C4.5 11.5821 4.66789 11.75 4.875 11.75C5.08211 11.75 5.25 11.5821 5.25 11.375C5.25 11.1679 5.08211 11 4.875 11" stroke="white" stroke-linecap="round" stroke-linejoin="round"/>
<path d="M6.375 7.25305C6.16789 7.25305 6 7.42094 6 7.62805C6 7.83516 6.16789 8.00305 6.375 8.00305C6.58211 8.00305 6.75 7.83516 6.75 7.62805C6.75 7.42094 6.58211 7.25305 6.375 7.25305" stroke="white" stroke-linecap="round" stroke-linejoin="round"/>
<path d="M19.125 11C18.9179 11 18.75 11.1679 18.75 11.375C18.75 11.5821 18.9179 11.75 19.125 11.75C19.3321 11.75 19.5 11.5821 19.5 11.375C19.5 11.1679 19.3321 11 19.125 11" stroke="white" stroke-linecap="round" stroke-linejoin="round"/>
<path d="M17.625 7.25305C17.4179 7.25305 17.25 7.42094 17.25 7.62805C17.25 7.83516 17.4179 8.00305 17.625 8.00305C17.8321 8.00305 18 7.83516 18 7.62805C18 7.42094 17.8321 7.25305 17.625 7.25305" stroke="white" stroke-linecap="round" stroke-linejoin="round"/>
<path d="M9.375 4.25305C9.16789 4.25305 9 4.42094 9 4.62805C9 4.83516 9.16789 5.00305 9.375 5.00305C9.58211 5.00305 9.75 4.83516 9.75 4.62805C9.75 4.42094 9.58211 4.25305 9.375 4.25305" stroke="white" stroke-linecap="round" stroke-linejoin="round"/>
</svg>
