<svg width="26" height="24" viewBox="0 0 26 24" fill="none" xmlns="http://www.w3.org/2000/svg">
<path fill-rule="evenodd" clip-rule="evenodd" d="M4.7501 8.25C6.07558 8.25 7.1501 7.24264 7.1501 6C7.1501 4.75736 6.07558 3.75 4.7501 3.75C3.42461 3.75 2.3501 4.75736 2.3501 6C2.3501 7.24264 3.42461 8.25 4.7501 8.25Z" stroke="white" stroke-linecap="round" stroke-linejoin="round"/>
<path d="M4.75 9.75C2.54086 9.75 0.75 11.4289 0.75 13.5V15.75H2.35L3.15 21.75H6.35" stroke="white" stroke-linecap="round" stroke-linejoin="round"/>
<path fill-rule="evenodd" clip-rule="evenodd" d="M20.7501 8.25C22.0756 8.25 23.1501 7.24264 23.1501 6C23.1501 4.75736 22.0756 3.75 20.7501 3.75C19.4246 3.75 18.3501 4.75736 18.3501 6C18.3501 7.24264 19.4246 8.25 20.7501 8.25Z" stroke="white" stroke-linecap="round" stroke-linejoin="round"/>
<path d="M20.7499 9.75C22.959 9.75 24.7499 11.4289 24.7499 13.5V15.75H23.1499L22.3499 21.75H19.1499" stroke="white" stroke-linecap="round" stroke-linejoin="round"/>
<path fill-rule="evenodd" clip-rule="evenodd" d="M12.7498 6.75C14.5171 6.75 15.9498 5.40685 15.9498 3.75C15.9498 2.09315 14.5171 0.75 12.7498 0.75C10.9825 0.75 9.5498 2.09315 9.5498 3.75C9.5498 5.40685 10.9825 6.75 12.7498 6.75Z" stroke="white" stroke-linecap="round" stroke-linejoin="round"/>
<path fill-rule="evenodd" clip-rule="evenodd" d="M18.3499 13.5C18.3499 10.6005 15.8427 8.25 12.7499 8.25C9.65711 8.25 7.1499 10.6005 7.1499 13.5V15.75H9.5499L10.3499 23.25H15.1499L15.9499 15.75H18.3499V13.5Z" stroke="white" stroke-linecap="round" stroke-linejoin="round"/>
</svg>
