<svg width="26" height="28" viewBox="0 0 26 28" fill="none" xmlns="http://www.w3.org/2000/svg">
<path fill-rule="evenodd" clip-rule="evenodd" d="M5 14.032C5 14.032 8.2 8.87744 13 8.87744C17.8 8.87744 21 14.032 21 14.032C21 14.032 17.8 19.1866 13 19.1866C8.2 19.1866 5 14.032 5 14.032Z" stroke="white" stroke-linecap="round" stroke-linejoin="round"/>
<path fill-rule="evenodd" clip-rule="evenodd" d="M11 13.7593C11 12.7237 11.8395 11.8843 12.875 11.8843H13.125C14.1605 11.8843 15 12.7237 15 13.7593V14.3048C15 15.3403 14.1605 16.1798 13.125 16.1798H12.875C11.8395 16.1798 11 15.3403 11 14.3048V13.7593Z" stroke="white" stroke-linecap="round" stroke-linejoin="round"/>
<path d="M1 5.44101V2.86371C1 1.91477 1.71634 1.14551 2.6 1.14551H5" stroke="white" stroke-linecap="round" stroke-linejoin="round"/>
<path d="M25 5.44101V2.86371C25 1.91477 24.2837 1.14551 23.4 1.14551H21" stroke="white" stroke-linecap="round" stroke-linejoin="round"/>
<path d="M1 22.623V25.2003C1 26.1493 1.71634 26.9185 2.6 26.9185H5" stroke="white" stroke-linecap="round" stroke-linejoin="round"/>
<path d="M25 22.623V25.2003C25 26.1493 24.2837 26.9185 23.4 26.9185H21" stroke="white" stroke-linecap="round" stroke-linejoin="round"/>
</svg>
