<svg width="17" height="15" viewBox="0 0 17 15" fill="none" xmlns="http://www.w3.org/2000/svg">
<path d="M12.8669 4.03069C12.6883 3.90779 12.4648 3.85619 12.2455 3.88725C12.0261 3.91831 11.829 4.02949 11.6975 4.19631L7.7323 9.22131L5.21085 7.33756C4.84923 7.07891 4.3325 7.13762 4.04787 7.46971C3.76324 7.80179 3.81513 8.28542 4.16465 8.55819L7.36616 10.9494C7.54488 11.08 7.77228 11.1379 7.99723 11.1103C8.22218 11.0827 8.4258 10.9718 8.56229 10.8026L13.047 5.12319C13.1783 4.95605 13.2332 4.74701 13.1994 4.54209C13.1656 4.33718 13.046 4.15321 12.8669 4.03069Z" fill="#4F6481"/>
<path fill-rule="evenodd" clip-rule="evenodd" d="M0.49707 7.5C0.49707 3.35786 4.09322 0 8.52929 0C12.9634 0.00447803 16.5567 3.35972 16.5615 7.5C16.5615 11.6421 12.9654 15 8.52929 15C4.09322 15 0.49707 11.6421 0.49707 7.5ZM1.83583 7.49999C1.83583 10.9518 4.83262 13.75 8.52935 13.75C12.2244 13.7462 15.2188 10.9502 15.2229 7.49999C15.2229 4.04821 12.2261 1.24999 8.52935 1.24999C4.83262 1.24999 1.83583 4.04821 1.83583 7.49999Z" fill="#4F6481"/>
</svg>
