<svg width="16" height="15" viewBox="0 0 16 15" fill="none" xmlns="http://www.w3.org/2000/svg">
<path fill-rule="evenodd" clip-rule="evenodd" d="M7.87443 14.8443C3.61584 14.8443 0.163574 11.5561 0.163574 7.49989C0.168636 3.44571 3.61794 0.160339 7.87443 0.155518C12.133 0.155518 15.5853 3.44371 15.5853 7.49989C15.5853 11.5561 12.133 14.8443 7.87443 14.8443ZM10.1958 12.8418C12.4643 11.9469 13.9434 9.83856 13.9434 7.4999H13.9447C13.9408 4.30823 11.2253 1.72181 7.87435 1.71802C5.41899 1.71752 3.2051 3.12591 2.26511 5.28641C1.32511 7.4469 1.84414 9.934 3.58016 11.5879C5.31618 13.2417 7.92726 13.7366 10.1958 12.8418Z" fill="#37A8EB"/>
<path d="M5.79639 4.4161C5.58915 4.21871 5.28709 4.14162 5.004 4.21387C4.7209 4.28612 4.49978 4.49673 4.42393 4.76637C4.34807 5.03601 4.42901 5.32371 4.63625 5.5211L6.59825 7.38923C6.6291 7.41854 6.64644 7.45834 6.64644 7.49985C6.64644 7.54136 6.6291 7.58116 6.59825 7.61048L4.63625 9.47923C4.42308 9.67544 4.33765 9.96593 4.4128 10.2391C4.48794 10.5122 4.71197 10.7254 4.99877 10.7969C5.28556 10.8683 5.59051 10.7867 5.79639 10.5836L7.75773 8.71548C7.78842 8.68593 7.83024 8.66931 7.87388 8.66931C7.91751 8.66931 7.95933 8.68593 7.99002 8.71548L9.95202 10.5836C10.1591 10.7809 10.461 10.8579 10.744 10.7857C11.0269 10.7135 11.2479 10.503 11.3237 10.2335C11.3995 9.96404 11.3186 9.67651 11.1115 9.47923L9.15016 7.61048C9.11931 7.58116 9.10197 7.54136 9.10197 7.49985C9.10197 7.45834 9.11931 7.41854 9.15016 7.38923L11.1115 5.5211C11.3248 5.32501 11.4104 5.03456 11.3354 4.76139C11.2604 4.48822 11.0365 4.27485 10.7498 4.20327C10.463 4.1317 10.158 4.21307 9.95202 4.4161L7.99002 6.28485C7.92577 6.34571 7.82198 6.34571 7.75773 6.28485L5.79639 4.4161Z" fill="#37A8EB"/>
</svg>
