<svg width="25" height="24" viewBox="0 0 25 24" fill="none" xmlns="http://www.w3.org/2000/svg">
<path d="M3.61938 18.75V16.227C3.61938 15.9636 3.83294 15.75 4.09638 15.75H19.6444C19.9078 15.75 20.1214 15.9636 20.1214 16.227V18" stroke="#37A8EB" stroke-width="1.5" stroke-linecap="round" stroke-linejoin="round"/>
<path d="M11.8691 12.75V18.75" stroke="#37A8EB" stroke-width="1.5" stroke-linecap="round" stroke-linejoin="round"/>
<path fill-rule="evenodd" clip-rule="evenodd" d="M3.61914 23.25C4.86178 23.25 5.86914 22.2426 5.86914 21C5.86914 19.7574 4.86178 18.75 3.61914 18.75C2.3765 18.75 1.36914 19.7574 1.36914 21C1.36914 22.2426 2.3765 23.25 3.61914 23.25Z" stroke="#37A8EB" stroke-width="1.5" stroke-linecap="round" stroke-linejoin="round"/>
<path d="M13.3688 3.75H11.3358C10.6932 3.75045 10.1411 4.20639 10.0191 4.83734C9.8972 5.46828 10.2396 6.09712 10.8358 6.337L12.8998 7.162C13.4974 7.40104 13.8411 8.03066 13.719 8.66257C13.5969 9.29448 13.0434 9.75075 12.3998 9.75H10.3688" stroke="#37A8EB" stroke-width="1.5" stroke-linecap="round" stroke-linejoin="round"/>
<path d="M11.8691 3.75V3" stroke="#37A8EB" stroke-width="1.5" stroke-linecap="round" stroke-linejoin="round"/>
<path d="M11.8691 10.5V9.75" stroke="#37A8EB" stroke-width="1.5" stroke-linecap="round" stroke-linejoin="round"/>
<path fill-rule="evenodd" clip-rule="evenodd" d="M11.8689 12.75C15.1826 12.75 17.8689 10.0637 17.8689 6.75C17.8689 3.43629 15.1826 0.75 11.8689 0.75C8.55519 0.75 5.8689 3.43629 5.8689 6.75C5.8689 10.0637 8.55519 12.75 11.8689 12.75Z" stroke="#37A8EB" stroke-width="1.5" stroke-linecap="round" stroke-linejoin="round"/>
<path fill-rule="evenodd" clip-rule="evenodd" d="M9.61914 18.75H14.1191V23.25H9.61914V18.75Z" stroke="#37A8EB" stroke-width="1.5" stroke-linecap="round" stroke-linejoin="round"/>
<path fill-rule="evenodd" clip-rule="evenodd" d="M17.1194 23.25H23.1194L20.1194 18L17.1194 23.25V23.25Z" stroke="#37A8EB" stroke-width="1.5" stroke-linecap="round" stroke-linejoin="round"/>
</svg>
