<svg width="26" height="26" viewBox="0 0 26 26" fill="none" xmlns="http://www.w3.org/2000/svg">
<path fill-rule="evenodd" clip-rule="evenodd" d="M18.5387 25C22.0733 25 24.9386 22.1347 24.9386 18.6001C24.9386 15.0655 22.0733 12.2002 18.5387 12.2002C15.004 12.2002 12.1387 15.0655 12.1387 18.6001C12.1387 22.1347 15.004 25 18.5387 25Z" stroke="#37A8EB" stroke-width="1.5" stroke-linecap="round" stroke-linejoin="round"/>
<path d="M21.3913 16.7397L18.2927 20.8709C18.1532 21.0562 17.9404 21.172 17.7092 21.1886C17.4779 21.2052 17.2507 21.1208 17.0863 20.9573L15.4863 19.3573" stroke="#37A8EB" stroke-width="1.5" stroke-linecap="round" stroke-linejoin="round"/>
<path d="M4.13818 7.3999H15.3381" stroke="#37A8EB" stroke-width="1.5" stroke-linecap="round" stroke-linejoin="round"/>
<path d="M4.13818 12.2002H10.5382" stroke="#37A8EB" stroke-width="1.5" stroke-linecap="round" stroke-linejoin="round"/>
<path d="M4.13818 16.9999H8.13817" stroke="#37A8EB" stroke-width="1.5" stroke-linecap="round" stroke-linejoin="round"/>
<path d="M8.13845 21.8001H2.53847C1.65482 21.8001 0.938477 21.0837 0.938477 20.2001V2.60001C0.938477 1.71635 1.65482 1 2.53847 1H13.876C14.3001 1.00009 14.7068 1.16851 15.0067 1.46827L18.0702 4.53175C18.3699 4.8317 18.5383 5.23837 18.5384 5.66242V8.20003" stroke="#37A8EB" stroke-width="1.5" stroke-linecap="round" stroke-linejoin="round"/>
</svg>
