
<svg width="16" height="17" viewBox="0 0 16 17" fill="none" xmlns="http://www.w3.org/2000/svg">
  <path fill-rule="evenodd" clip-rule="evenodd" d="M7.99808 15.5312C12.0751 15.5312 15.3802 12.3833 15.3802 8.5C15.3802 4.61675 12.0751 1.46875 7.99808 1.46875C3.92105 1.46875 0.615967 4.61675 0.615967 8.5C0.615967 12.3833 3.92105 15.5312 7.99808 15.5312Z" stroke="#FAFAFA" stroke-linecap="round" stroke-linejoin="round"/>
  <path fill-rule="evenodd" clip-rule="evenodd" d="M3.56885 6.46875C3.56885 5.77839 4.12849 5.21875 4.81885 5.21875H11.1774C11.8677 5.21875 12.4274 5.77839 12.4274 6.46875V10.5313C12.4274 11.2216 11.8677 11.7812 11.1774 11.7812H4.81885C4.12849 11.7812 3.56885 11.2216 3.56885 10.5312V6.46875Z" stroke="#FAFAFA" stroke-linecap="round" stroke-linejoin="round"/>
  <path d="M3.56885 6.15625L7.99811 8.5L12.4274 6.15625" stroke="#FAFAFA" stroke-linecap="round" stroke-linejoin="round"/>
</svg>
