<svg width="273" height="341" viewBox="0 0 273 341" fill="none" xmlns="http://www.w3.org/2000/svg">
<g opacity="0.5">
<path d="M139.779 340.327L96.9905 314.849C96.5407 314.581 96.2652 314.096 96.2652 313.573L96.2652 125.434C96.2652 124.633 96.6857 123.891 97.3728 123.48L221.823 48.9442C223.313 48.0517 225.162 48.0055 226.695 48.8224L271.793 72.8567C272.536 73.2525 273 74.0256 273 74.8672V216.833C273 217.626 272.588 218.362 271.912 218.776L165.9 283.709C164.382 284.639 162.431 283.547 162.431 281.766V235.61C162.431 234.836 162.824 234.115 163.475 233.695L224.224 194.506L224.224 107.188L144.269 155.067V337.774C144.269 340.079 141.759 341.505 139.779 340.327Z" fill="#A2DCFF"/>
<path d="M1.07446 218.778L70.8907 262.229C72.4082 263.173 74.3727 262.082 74.3727 260.294V209.295C74.3727 208.533 73.9917 207.822 73.3574 207.399L51.6827 192.962L51.6827 100.042L125.515 57.2163L150.086 64.2883C150.691 64.4626 151.342 64.3782 151.883 64.0553L195.718 37.8952C197.275 36.9658 197.175 34.678 195.543 33.8881L127.893 1.15084C126.407 0.431621 124.66 0.500706 123.235 1.33504L1.127 72.8399C0.428948 73.2486 0 73.9969 0 74.8058L0 216.844C0 217.631 0.406244 218.362 1.07446 218.778Z" fill="#A2DCFF"/>
</g>
</svg>
