<svg width="999" height="218" viewBox="0 0 999 218" fill="none" xmlns="http://www.w3.org/2000/svg">
<path d="M222.6 109.244C222.6 99.2866 224.824 90.3923 229.271 82.5614C233.815 74.6338 239.954 68.4948 247.688 64.1443C255.519 59.6972 264.268 57.4736 273.936 57.4736C285.247 57.4736 295.156 60.3739 303.664 66.1746C312.172 71.9752 318.117 79.9994 321.501 90.2472H298.153C295.736 85.6067 292.449 82.1263 288.292 79.8061C284.135 77.3891 279.301 76.1807 273.791 76.1807C267.893 76.1807 262.624 77.5342 257.984 80.2411C253.44 82.9481 249.863 86.8152 247.253 91.8424C244.739 96.8696 243.482 102.67 243.482 109.244C243.482 115.818 244.739 121.619 247.253 126.646C249.863 131.577 253.44 135.444 257.984 138.248C262.624 140.955 267.893 142.308 273.791 142.308C279.301 142.308 284.135 141.1 288.292 138.683C292.546 136.266 295.833 132.737 298.153 128.096H321.501C318.117 138.441 312.172 146.513 303.664 152.314C295.253 158.018 285.344 160.87 273.936 160.87C264.268 160.87 255.519 158.695 247.688 154.344C239.954 149.897 233.815 143.758 229.271 135.927C224.824 128.096 222.6 119.202 222.6 109.244ZM374.516 161.305C366.782 161.305 359.821 159.613 353.633 156.23C347.446 152.749 342.564 147.867 338.987 141.583C335.506 135.299 333.766 128.048 333.766 119.831C333.766 111.613 335.555 104.362 339.132 98.0781C342.806 91.7941 347.784 86.9602 354.068 83.5765C360.352 80.0961 367.362 78.3559 375.096 78.3559C382.83 78.3559 389.839 80.0961 396.123 83.5765C402.407 86.9602 407.338 91.7941 410.915 98.0781C414.589 104.362 416.425 111.613 416.425 119.831C416.425 128.048 414.54 135.299 410.77 141.583C407.096 147.867 402.069 152.749 395.688 156.23C389.404 159.613 382.347 161.305 374.516 161.305ZM374.516 143.903C378.189 143.903 381.621 142.985 384.812 141.148C388.099 139.311 390.709 136.604 392.643 133.027C394.576 129.353 395.543 124.954 395.543 119.831C395.543 114.707 394.576 110.356 392.643 106.779C390.709 103.105 388.147 100.35 384.957 98.5132C381.863 96.6763 378.479 95.7579 374.806 95.7579C369.102 95.7579 364.268 97.8848 360.304 102.139C356.34 106.296 354.358 112.193 354.358 119.831C354.358 127.468 356.292 133.414 360.159 137.668C364.026 141.825 368.812 143.903 374.516 143.903ZM505.131 90.1022C505.131 95.5162 503.826 100.592 501.216 105.329C498.702 110.066 494.69 113.885 489.179 116.785C483.765 119.686 476.901 121.136 468.587 121.136H451.62V160H431.318V58.7787H468.587C476.418 58.7787 483.089 60.1322 488.599 62.8392C494.11 65.5462 498.219 69.2682 500.926 74.0054C503.729 78.7426 505.131 84.1082 505.131 90.1022ZM467.717 105.184C473.228 105.184 477.336 103.83 480.043 101.123C482.847 98.4165 484.249 94.7427 484.249 90.1022C484.249 85.2684 482.895 81.5463 480.188 78.936C477.481 76.229 473.324 74.8755 467.717 74.8755H451.62V105.184H467.717ZM539.848 93.8726C542.458 89.0388 545.842 85.2683 549.999 82.5614C554.253 79.8544 559.086 78.5009 564.5 78.5009V99.8183H559.135C552.754 99.8183 547.92 101.317 544.633 104.314C541.443 107.311 539.848 112.531 539.848 119.976V160H519.545V79.6611H539.848V93.8726ZM613.849 161.305C606.115 161.305 599.154 159.613 592.967 156.23C586.779 152.749 581.897 147.867 578.32 141.583C574.84 135.299 573.099 128.048 573.099 119.831C573.099 111.613 574.888 104.362 578.465 98.0781C582.139 91.7941 587.118 86.9602 593.402 83.5765C599.686 80.0961 606.695 78.3559 614.429 78.3559C622.163 78.3559 629.172 80.0961 635.456 83.5765C641.74 86.9602 646.671 91.7941 650.248 98.0781C653.922 104.362 655.759 111.613 655.759 119.831C655.759 128.048 653.873 135.299 650.103 141.583C646.429 147.867 641.402 152.749 635.021 156.23C628.737 159.613 621.68 161.305 613.849 161.305ZM613.849 143.903C617.523 143.903 620.955 142.985 624.145 141.148C627.432 139.311 630.042 136.604 631.976 133.027C633.91 129.353 634.876 124.954 634.876 119.831C634.876 114.707 633.91 110.356 631.976 106.779C630.042 103.105 627.48 100.35 624.29 98.5132C621.196 96.6763 617.813 95.7579 614.139 95.7579C608.435 95.7579 603.601 97.8848 599.637 102.139C595.674 106.296 593.692 112.193 593.692 119.831C593.692 127.468 595.625 133.414 599.492 137.668C603.359 141.825 608.145 143.903 613.849 143.903ZM665.431 119.831C665.431 111.516 667.122 104.265 670.506 98.0781C673.89 91.7941 678.579 86.9602 684.573 83.5765C690.567 80.0961 697.431 78.3559 705.165 78.3559C715.123 78.3559 723.34 80.8695 729.818 85.8968C736.392 90.8273 740.791 97.7881 743.014 106.779H721.117C719.957 103.299 717.975 100.592 715.171 98.6582C712.464 96.6279 709.08 95.6128 705.02 95.6128C699.219 95.6128 694.627 97.7397 691.243 101.994C687.86 106.151 686.168 112.096 686.168 119.831C686.168 127.468 687.86 133.414 691.243 137.668C694.627 141.825 699.219 143.903 705.02 143.903C713.238 143.903 718.603 140.229 721.117 132.882H743.014C740.791 141.583 736.392 148.495 729.818 153.619C723.244 158.743 715.026 161.305 705.165 161.305C697.431 161.305 690.567 159.613 684.573 156.23C678.579 152.749 673.89 147.915 670.506 141.728C667.122 135.444 665.431 128.145 665.431 119.831ZM833.731 79.6611V160H813.284V149.849C810.673 153.329 807.241 156.085 802.987 158.115C798.83 160.048 794.286 161.015 789.356 161.015C783.072 161.015 777.513 159.71 772.679 157.1C767.845 154.393 764.026 150.477 761.223 145.353C758.516 140.133 757.162 133.945 757.162 126.791V79.6611H777.465V123.891C777.465 130.272 779.06 135.202 782.25 138.683C785.44 142.066 789.791 143.758 795.302 143.758C800.909 143.758 805.308 142.066 808.498 138.683C811.688 135.202 813.284 130.272 813.284 123.891V79.6611H833.731ZM874.065 93.8726C876.675 89.0388 880.059 85.2683 884.216 82.5614C888.469 79.8544 893.303 78.5009 898.717 78.5009V99.8183H893.352C886.971 99.8183 882.137 101.317 878.85 104.314C875.66 107.311 874.065 112.531 874.065 119.976V160H853.762V79.6611H874.065V93.8726ZM987.075 117.945C987.075 120.652 986.882 123.166 986.495 125.486H927.764C928.15 131.383 930.132 136.024 933.709 139.408C937.286 142.791 941.733 144.483 947.051 144.483C954.592 144.483 959.957 141.245 963.148 134.767H985.045C982.725 142.501 978.278 148.882 971.703 153.909C965.129 158.84 957.057 161.305 947.486 161.305C939.752 161.305 932.791 159.613 926.603 156.23C920.513 152.749 915.727 147.867 912.247 141.583C908.863 135.299 907.171 128.048 907.171 119.831C907.171 111.516 908.863 104.217 912.247 97.9331C915.631 91.6491 920.368 86.8152 926.458 83.4315C932.549 80.0478 939.558 78.3559 947.486 78.3559C955.123 78.3559 961.939 79.9994 967.933 83.2865C974.024 86.5735 978.713 91.214 982 97.208C985.383 103.202 987.075 110.114 987.075 117.945ZM966.048 113.16C965.951 107.552 964.066 103.154 960.392 99.9633C956.815 96.6763 952.32 95.0328 946.906 95.0328C941.782 95.0328 937.48 96.6763 933.999 99.9633C930.519 103.154 928.44 107.552 927.764 113.16H966.048Z" fill="#37A8EB"/>
<path d="M78.7118 209.468L52.5213 193.355V86.0943L122.335 42.8926L148.946 57.5458V139.065L88.621 177.242V148.23L122.335 125.759V76.5362L78.7118 103.527V209.468Z" fill="#37A8EB"/>
<path d="M0 139.065L40.577 165.157V133.408L28.1976 124.889V72.508L68.4798 48.3665L82.4032 52.5072L108.762 36.2539L68.4798 16.1128L0 57.5458V139.065Z" fill="#37A8EB"/>
</svg>
