<svg width="453" height="311" viewBox="0 0 453 311" fill="none" xmlns="http://www.w3.org/2000/svg">
<path d="M140.024 309.53V299.52H141.188V308.475H145.604V309.53H140.024ZM150.307 309.667C149.198 309.667 148.322 309.329 147.678 308.653C147.039 307.978 146.72 307.04 146.72 305.84C146.72 304.63 147.016 303.669 147.61 302.957C148.207 302.245 149.008 301.889 150.013 301.889C150.953 301.889 151.697 302.2 152.245 302.82C152.792 303.436 153.066 304.251 153.066 305.264V305.983H147.897C147.92 306.864 148.141 307.533 148.561 307.989C148.986 308.446 149.581 308.674 150.348 308.674C151.156 308.674 151.955 308.505 152.744 308.167V309.181C152.343 309.354 151.962 309.477 151.601 309.55C151.245 309.628 150.814 309.667 150.307 309.667ZM149.999 302.841C149.396 302.841 148.915 303.037 148.554 303.43C148.198 303.822 147.988 304.365 147.924 305.059H151.847C151.847 304.342 151.688 303.795 151.368 303.416C151.049 303.033 150.592 302.841 149.999 302.841ZM159.625 309.53L159.399 308.462H159.344C158.97 308.932 158.596 309.251 158.221 309.42C157.852 309.585 157.389 309.667 156.832 309.667C156.088 309.667 155.503 309.475 155.079 309.092C154.659 308.708 154.449 308.163 154.449 307.455C154.449 305.94 155.661 305.146 158.085 305.073L159.358 305.032V304.566C159.358 303.977 159.23 303.544 158.975 303.265C158.724 302.982 158.32 302.841 157.763 302.841C157.137 302.841 156.43 303.033 155.64 303.416L155.291 302.546C155.661 302.346 156.065 302.188 156.503 302.074C156.946 301.96 157.389 301.903 157.831 301.903C158.726 301.903 159.388 302.101 159.817 302.499C160.25 302.896 160.467 303.532 160.467 304.409V309.53H159.625ZM157.058 308.729C157.765 308.729 158.32 308.535 158.721 308.147C159.128 307.759 159.331 307.216 159.331 306.517V305.84L158.194 305.887C157.29 305.919 156.638 306.061 156.236 306.312C155.839 306.558 155.64 306.944 155.64 307.469C155.64 307.88 155.764 308.192 156.01 308.407C156.261 308.621 156.61 308.729 157.058 308.729ZM166.239 301.889C166.572 301.889 166.871 301.917 167.136 301.971L166.978 303.026C166.668 302.957 166.394 302.923 166.156 302.923C165.549 302.923 165.029 303.169 164.596 303.662C164.166 304.155 163.952 304.769 163.952 305.504V309.53H162.815V302.026H163.753L163.883 303.416H163.938C164.217 302.928 164.552 302.551 164.945 302.286C165.337 302.022 165.769 301.889 166.239 301.889ZM173.674 309.53V304.676C173.674 304.064 173.535 303.608 173.256 303.306C172.978 303.005 172.542 302.855 171.949 302.855C171.164 302.855 170.588 303.067 170.223 303.491C169.858 303.916 169.676 304.616 169.676 305.593V309.53H168.539V302.026H169.463L169.648 303.053H169.703C169.936 302.683 170.262 302.398 170.682 302.197C171.102 301.992 171.57 301.889 172.085 301.889C172.989 301.889 173.669 302.108 174.126 302.546C174.582 302.98 174.81 303.676 174.81 304.635V309.53H173.674ZM185.395 309.53L181.999 300.657H181.944C182.008 301.36 182.04 302.195 182.04 303.163V309.53H180.965V299.52H182.718L185.888 307.777H185.943L189.14 299.52H190.879V309.53H189.715V303.08C189.715 302.341 189.747 301.538 189.811 300.671H189.756L186.333 309.53H185.395ZM199.937 305.771C199.937 306.994 199.629 307.951 199.012 308.64C198.396 309.324 197.545 309.667 196.459 309.667C195.788 309.667 195.192 309.509 194.672 309.194C194.152 308.879 193.75 308.428 193.467 307.839C193.184 307.25 193.042 306.561 193.042 305.771C193.042 304.548 193.348 303.596 193.96 302.916C194.571 302.232 195.42 301.889 196.507 301.889C197.556 301.889 198.389 302.238 199.006 302.937C199.626 303.635 199.937 304.58 199.937 305.771ZM194.22 305.771C194.22 306.73 194.412 307.46 194.795 307.962C195.178 308.464 195.742 308.715 196.486 308.715C197.23 308.715 197.794 308.466 198.177 307.969C198.565 307.467 198.759 306.734 198.759 305.771C198.759 304.817 198.565 304.094 198.177 303.601C197.794 303.103 197.226 302.855 196.472 302.855C195.728 302.855 195.167 303.099 194.788 303.587C194.409 304.075 194.22 304.803 194.22 305.771ZM205.359 301.889C205.692 301.889 205.991 301.917 206.256 301.971L206.099 303.026C205.788 302.957 205.514 302.923 205.277 302.923C204.67 302.923 204.15 303.169 203.716 303.662C203.287 304.155 203.072 304.769 203.072 305.504V309.53H201.936V302.026H202.874L203.004 303.416H203.059C203.337 302.928 203.673 302.551 204.065 302.286C204.458 302.022 204.889 301.889 205.359 301.889ZM210.829 309.667C209.72 309.667 208.844 309.329 208.2 308.653C207.561 307.978 207.242 307.04 207.242 305.84C207.242 304.63 207.539 303.669 208.132 302.957C208.73 302.245 209.531 301.889 210.535 301.889C211.475 301.889 212.219 302.2 212.767 302.82C213.315 303.436 213.588 304.251 213.588 305.264V305.983H208.419C208.442 306.864 208.664 307.533 209.084 307.989C209.508 308.446 210.104 308.674 210.87 308.674C211.678 308.674 212.477 308.505 213.267 308.167V309.181C212.865 309.354 212.484 309.477 212.123 309.55C211.767 309.628 211.336 309.667 210.829 309.667ZM210.521 302.841C209.919 302.841 209.437 303.037 209.077 303.43C208.721 303.822 208.511 304.365 208.447 305.059H212.37C212.37 304.342 212.21 303.795 211.891 303.416C211.571 303.033 211.115 302.841 210.521 302.841Z" fill="white"/>
<path d="M38.4867 12.1423C41.7607 12.1423 44.4149 9.42413 44.4149 6.07113C44.4149 2.71814 41.7607 0 38.4867 0C35.2127 0 32.5586 2.71814 32.5586 6.07113C32.5586 9.42413 35.2127 12.1423 38.4867 12.1423Z" fill="#37A8EB"/>
<path d="M54.8124 12.1423C58.0864 12.1423 60.7405 9.42413 60.7405 6.07113C60.7405 2.71814 58.0864 0 54.8124 0C51.5384 0 48.8843 2.71814 48.8843 6.07113C48.8843 9.42413 51.5384 12.1423 54.8124 12.1423Z" fill="#37A8EB"/>
<path d="M71.1374 12.1423C74.4114 12.1423 77.0655 9.42413 77.0655 6.07113C77.0655 2.71814 74.4114 0 71.1374 0C67.8633 0 65.2092 2.71814 65.2092 6.07113C65.2092 9.42413 67.8633 12.1423 71.1374 12.1423Z" fill="#37A8EB"/>
<path d="M87.463 12.1423C90.7371 12.1423 93.3912 9.42413 93.3912 6.07113C93.3912 2.71814 90.7371 0 87.463 0C84.189 0 81.5349 2.71814 81.5349 6.07113C81.5349 9.42413 84.189 12.1423 87.463 12.1423Z" fill="#37A8EB"/>
<path d="M103.697 12.1423C106.971 12.1423 109.625 9.42413 109.625 6.07113C109.625 2.71814 106.971 0 103.697 0C100.423 0 97.7688 2.71814 97.7688 6.07113C97.7688 9.42413 100.423 12.1423 103.697 12.1423Z" fill="#37A8EB"/>
<path d="M316.528 62.1423C319.802 62.1423 322.457 59.4241 322.457 56.0711C322.457 52.7181 319.802 50 316.528 50C313.254 50 310.6 52.7181 310.6 56.0711C310.6 59.4241 313.254 62.1423 316.528 62.1423Z" fill="#37A8EB"/>
<path d="M447.072 12.1423C450.346 12.1423 453 9.42413 453 6.07113C453 2.71814 450.346 0 447.072 0C443.798 0 441.144 2.71814 441.144 6.07113C441.144 9.42413 443.798 12.1423 447.072 12.1423Z" fill="#37A8EB"/>
<path d="M22.1618 28.768C25.4358 28.768 28.0899 26.0499 28.0899 22.6969C28.0899 19.3439 25.4358 16.6257 22.1618 16.6257C18.8878 16.6257 16.2336 19.3439 16.2336 22.6969C16.2336 26.0499 18.8878 28.768 22.1618 28.768Z" fill="#37A8EB"/>
<path d="M38.4867 28.768C41.7607 28.768 44.4149 26.0499 44.4149 22.6969C44.4149 19.3439 41.7607 16.6257 38.4867 16.6257C35.2127 16.6257 32.5586 19.3439 32.5586 22.6969C32.5586 26.0499 35.2127 28.768 38.4867 28.768Z" fill="#37A8EB"/>
<path d="M54.8124 28.768C58.0864 28.768 60.7405 26.0499 60.7405 22.6969C60.7405 19.3439 58.0864 16.6257 54.8124 16.6257C51.5384 16.6257 48.8843 19.3439 48.8843 22.6969C48.8843 26.0499 51.5384 28.768 54.8124 28.768Z" fill="#37A8EB"/>
<path d="M71.1374 28.768C74.4114 28.768 77.0655 26.0499 77.0655 22.6969C77.0655 19.3439 74.4114 16.6257 71.1374 16.6257C67.8633 16.6257 65.2092 19.3439 65.2092 22.6969C65.2092 26.0499 67.8633 28.768 71.1374 28.768Z" fill="#37A8EB"/>
<path d="M87.463 28.768C90.7371 28.768 93.3912 26.0499 93.3912 22.6969C93.3912 19.3439 90.7371 16.6257 87.463 16.6257C84.189 16.6257 81.5349 19.3439 81.5349 22.6969C81.5349 26.0499 84.189 28.768 87.463 28.768Z" fill="#37A8EB"/>
<path d="M103.697 28.768C106.971 28.768 109.625 26.0499 109.625 22.6969C109.625 19.3439 106.971 16.6257 103.697 16.6257C100.423 16.6257 97.7688 19.3439 97.7688 22.6969C97.7688 26.0499 100.423 28.768 103.697 28.768Z" fill="#37A8EB"/>
<path d="M120.022 28.768C123.296 28.768 125.95 26.0499 125.95 22.6969C125.95 19.3439 123.296 16.6257 120.022 16.6257C116.748 16.6257 114.094 19.3439 114.094 22.6969C114.094 26.0499 116.748 28.768 120.022 28.768Z" fill="#37A8EB"/>
<path d="M136.347 28.768C139.621 28.768 142.275 26.0499 142.275 22.6969C142.275 19.3439 139.621 16.6257 136.347 16.6257C133.073 16.6257 130.419 19.3439 130.419 22.6969C130.419 26.0499 133.073 28.768 136.347 28.768Z" fill="#37A8EB"/>
<path d="M153.128 28.768C156.402 28.768 159.056 26.0499 159.056 22.6969C159.056 19.3439 156.402 16.6257 153.128 16.6257C149.854 16.6257 147.2 19.3439 147.2 22.6969C147.2 26.0499 149.854 28.768 153.128 28.768Z" fill="#37A8EB"/>
<path d="M169.453 28.768C172.727 28.768 175.381 26.0499 175.381 22.6969C175.381 19.3439 172.727 16.6257 169.453 16.6257C166.179 16.6257 163.525 19.3439 163.525 22.6969C163.525 26.0499 166.179 28.768 169.453 28.768Z" fill="#37A8EB"/>
<path d="M185.687 28.768C188.961 28.768 191.615 26.0499 191.615 22.6969C191.615 19.3439 188.961 16.6257 185.687 16.6257C182.413 16.6257 179.759 19.3439 179.759 22.6969C179.759 26.0499 182.413 28.768 185.687 28.768Z" fill="#37A8EB"/>
<path d="M202.013 28.768C205.287 28.768 207.941 26.0499 207.941 22.6969C207.941 19.3439 205.287 16.6257 202.013 16.6257C198.739 16.6257 196.084 19.3439 196.084 22.6969C196.084 26.0499 198.739 28.768 202.013 28.768Z" fill="#37A8EB"/>
<path d="M218.337 28.768C221.611 28.768 224.265 26.0499 224.265 22.6969C224.265 19.3439 221.611 16.6257 218.337 16.6257C215.063 16.6257 212.409 19.3439 212.409 22.6969C212.409 26.0499 215.063 28.768 218.337 28.768Z" fill="#37A8EB"/>
<path d="M234.662 28.768C237.937 28.768 240.591 26.0499 240.591 22.6969C240.591 19.3439 237.937 16.6257 234.662 16.6257C231.388 16.6257 228.734 19.3439 228.734 22.6969C228.734 26.0499 231.388 28.768 234.662 28.768Z" fill="#37A8EB"/>
<path d="M250.988 28.768C254.262 28.768 256.916 26.0499 256.916 22.6969C256.916 19.3439 254.262 16.6257 250.988 16.6257C247.714 16.6257 245.06 19.3439 245.06 22.6969C245.06 26.0499 247.714 28.768 250.988 28.768Z" fill="#37A8EB"/>
<path d="M267.222 28.768C270.496 28.768 273.15 26.0499 273.15 22.6969C273.15 19.3439 270.496 16.6257 267.222 16.6257C263.948 16.6257 261.293 19.3439 261.293 22.6969C261.293 26.0499 263.948 28.768 267.222 28.768Z" fill="#37A8EB"/>
<path d="M283.547 28.768C286.821 28.768 289.475 26.0499 289.475 22.6969C289.475 19.3439 286.821 16.6257 283.547 16.6257C280.273 16.6257 277.619 19.3439 277.619 22.6969C277.619 26.0499 280.273 28.768 283.547 28.768Z" fill="#37A8EB"/>
<path d="M430.838 28.768C434.112 28.768 436.766 26.0499 436.766 22.6969C436.766 19.3439 434.112 16.6257 430.838 16.6257C427.564 16.6257 424.91 19.3439 424.91 22.6969C424.91 26.0499 427.564 28.768 430.838 28.768Z" fill="#37A8EB"/>
<path d="M447.072 28.768C450.346 28.768 453 26.0499 453 22.6969C453 19.3439 450.346 16.6257 447.072 16.6257C443.798 16.6257 441.144 19.3439 441.144 22.6969C441.144 26.0499 443.798 28.768 447.072 28.768Z" fill="#37A8EB"/>
<path d="M22.1618 45.4869C25.4358 45.4869 28.0899 42.7687 28.0899 39.4157C28.0899 36.0627 25.4358 33.3445 22.1618 33.3445C18.8878 33.3445 16.2336 36.0627 16.2336 39.4157C16.2336 42.7687 18.8878 45.4869 22.1618 45.4869Z" fill="#37A8EB"/>
<path d="M38.4867 45.4869C41.7607 45.4869 44.4149 42.7687 44.4149 39.4157C44.4149 36.0627 41.7607 33.3445 38.4867 33.3445C35.2127 33.3445 32.5586 36.0627 32.5586 39.4157C32.5586 42.7687 35.2127 45.4869 38.4867 45.4869Z" fill="#37A8EB"/>
<path d="M54.8124 45.4869C58.0864 45.4869 60.7405 42.7687 60.7405 39.4157C60.7405 36.0627 58.0864 33.3445 54.8124 33.3445C51.5384 33.3445 48.8843 36.0627 48.8843 39.4157C48.8843 42.7687 51.5384 45.4869 54.8124 45.4869Z" fill="#37A8EB"/>
<path d="M71.1374 45.4869C74.4114 45.4869 77.0655 42.7687 77.0655 39.4157C77.0655 36.0627 74.4114 33.3445 71.1374 33.3445C67.8633 33.3445 65.2092 36.0627 65.2092 39.4157C65.2092 42.7687 67.8633 45.4869 71.1374 45.4869Z" fill="#37A8EB"/>
<path d="M87.463 45.4869C90.7371 45.4869 93.3912 42.7687 93.3912 39.4157C93.3912 36.0627 90.7371 33.3445 87.463 33.3445C84.189 33.3445 81.5349 36.0627 81.5349 39.4157C81.5349 42.7687 84.189 45.4869 87.463 45.4869Z" fill="#37A8EB"/>
<path d="M103.697 45.4869C106.971 45.4869 109.625 42.7687 109.625 39.4157C109.625 36.0627 106.971 33.3445 103.697 33.3445C100.423 33.3445 97.7688 36.0627 97.7688 39.4157C97.7688 42.7687 100.423 45.4869 103.697 45.4869Z" fill="#37A8EB"/>
<path d="M120.022 45.4869C123.296 45.4869 125.95 42.7687 125.95 39.4157C125.95 36.0627 123.296 33.3445 120.022 33.3445C116.748 33.3445 114.094 36.0627 114.094 39.4157C114.094 42.7687 116.748 45.4869 120.022 45.4869Z" fill="#37A8EB"/>
<path d="M136.347 45.4869C139.621 45.4869 142.275 42.7687 142.275 39.4157C142.275 36.0627 139.621 33.3445 136.347 33.3445C133.073 33.3445 130.419 36.0627 130.419 39.4157C130.419 42.7687 133.073 45.4869 136.347 45.4869Z" fill="#37A8EB"/>
<path d="M153.128 45.4869C156.402 45.4869 159.056 42.7687 159.056 39.4157C159.056 36.0627 156.402 33.3445 153.128 33.3445C149.854 33.3445 147.2 36.0627 147.2 39.4157C147.2 42.7687 149.854 45.4869 153.128 45.4869Z" fill="#37A8EB"/>
<path d="M169.453 45.4869C172.727 45.4869 175.381 42.7687 175.381 39.4157C175.381 36.0627 172.727 33.3445 169.453 33.3445C166.179 33.3445 163.525 36.0627 163.525 39.4157C163.525 42.7687 166.179 45.4869 169.453 45.4869Z" fill="#37A8EB"/>
<path d="M185.687 45.4869C188.961 45.4869 191.615 42.7687 191.615 39.4157C191.615 36.0627 188.961 33.3445 185.687 33.3445C182.413 33.3445 179.759 36.0627 179.759 39.4157C179.759 42.7687 182.413 45.4869 185.687 45.4869Z" fill="#37A8EB"/>
<path d="M202.013 45.4869C205.287 45.4869 207.941 42.7687 207.941 39.4157C207.941 36.0627 205.287 33.3445 202.013 33.3445C198.739 33.3445 196.084 36.0627 196.084 39.4157C196.084 42.7687 198.739 45.4869 202.013 45.4869Z" fill="#37A8EB"/>
<path d="M218.337 45.4869C221.611 45.4869 224.265 42.7687 224.265 39.4157C224.265 36.0627 221.611 33.3445 218.337 33.3445C215.063 33.3445 212.409 36.0627 212.409 39.4157C212.409 42.7687 215.063 45.4869 218.337 45.4869Z" fill="#37A8EB"/>
<path d="M234.662 45.4869C237.937 45.4869 240.591 42.7687 240.591 39.4157C240.591 36.0627 237.937 33.3445 234.662 33.3445C231.388 33.3445 228.734 36.0627 228.734 39.4157C228.734 42.7687 231.388 45.4869 234.662 45.4869Z" fill="#37A8EB"/>
<path d="M250.988 45.4869C254.262 45.4869 256.916 42.7687 256.916 39.4157C256.916 36.0627 254.262 33.3445 250.988 33.3445C247.714 33.3445 245.06 36.0627 245.06 39.4157C245.06 42.7687 247.714 45.4869 250.988 45.4869Z" fill="#37A8EB"/>
<path d="M267.222 45.4869C270.496 45.4869 273.15 42.7687 273.15 39.4157C273.15 36.0627 270.496 33.3445 267.222 33.3445C263.948 33.3445 261.293 36.0627 261.293 39.4157C261.293 42.7687 263.948 45.4869 267.222 45.4869Z" fill="#37A8EB"/>
<path d="M283.547 45.4869C286.821 45.4869 289.475 42.7687 289.475 39.4157C289.475 36.0627 286.821 33.3445 283.547 33.3445C280.273 33.3445 277.619 36.0627 277.619 39.4157C277.619 42.7687 280.273 45.4869 283.547 45.4869Z" fill="#37A8EB"/>
<path d="M299.872 45.4869C303.146 45.4869 305.8 42.7687 305.8 39.4157C305.8 36.0627 303.146 33.3445 299.872 33.3445C296.598 33.3445 293.944 36.0627 293.944 39.4157C293.944 42.7687 296.598 45.4869 299.872 45.4869Z" fill="#37A8EB"/>
<path d="M316.653 45.4869C319.927 45.4869 322.582 42.7687 322.582 39.4157C322.582 36.0627 319.927 33.3445 316.653 33.3445C313.379 33.3445 310.725 36.0627 310.725 39.4157C310.725 42.7687 313.379 45.4869 316.653 45.4869Z" fill="#37A8EB"/>
<path d="M398.188 45.4869C401.462 45.4869 404.116 42.7687 404.116 39.4157C404.116 36.0627 401.462 33.3445 398.188 33.3445C394.914 33.3445 392.259 36.0627 392.259 39.4157C392.259 42.7687 394.914 45.4869 398.188 45.4869Z" fill="#37A8EB"/>
<path d="M414.513 45.4869C417.787 45.4869 420.442 42.7687 420.442 39.4157C420.442 36.0627 417.787 33.3445 414.513 33.3445C411.239 33.3445 408.585 36.0627 408.585 39.4157C408.585 42.7687 411.239 45.4869 414.513 45.4869Z" fill="#37A8EB"/>
<path d="M430.838 45.4869C434.112 45.4869 436.766 42.7687 436.766 39.4157C436.766 36.0627 434.112 33.3445 430.838 33.3445C427.564 33.3445 424.91 36.0627 424.91 39.4157C424.91 42.7687 427.564 45.4869 430.838 45.4869Z" fill="#37A8EB"/>
<path d="M22.1618 62.6727C25.4358 62.6727 28.0899 59.9546 28.0899 56.6016C28.0899 53.2486 25.4358 50.5305 22.1618 50.5305C18.8878 50.5305 16.2336 53.2486 16.2336 56.6016C16.2336 59.9546 18.8878 62.6727 22.1618 62.6727Z" fill="#37A8EB"/>
<path d="M38.4867 62.6727C41.7607 62.6727 44.4149 59.9546 44.4149 56.6016C44.4149 53.2486 41.7607 50.5305 38.4867 50.5305C35.2127 50.5305 32.5586 53.2486 32.5586 56.6016C32.5586 59.9546 35.2127 62.6727 38.4867 62.6727Z" fill="#37A8EB"/>
<path d="M54.8124 62.6727C58.0864 62.6727 60.7405 59.9546 60.7405 56.6016C60.7405 53.2486 58.0864 50.5305 54.8124 50.5305C51.5384 50.5305 48.8843 53.2486 48.8843 56.6016C48.8843 59.9546 51.5384 62.6727 54.8124 62.6727Z" fill="#37A8EB"/>
<path d="M71.1374 62.6727C74.4114 62.6727 77.0655 59.9546 77.0655 56.6016C77.0655 53.2486 74.4114 50.5305 71.1374 50.5305C67.8633 50.5305 65.2092 53.2486 65.2092 56.6016C65.2092 59.9546 67.8633 62.6727 71.1374 62.6727Z" fill="#37A8EB"/>
<path d="M87.463 62.6727C90.7371 62.6727 93.3912 59.9546 93.3912 56.6016C93.3912 53.2486 90.7371 50.5305 87.463 50.5305C84.189 50.5305 81.5349 53.2486 81.5349 56.6016C81.5349 59.9546 84.189 62.6727 87.463 62.6727Z" fill="#37A8EB"/>
<path d="M103.697 62.6727C106.971 62.6727 109.625 59.9546 109.625 56.6016C109.625 53.2486 106.971 50.5305 103.697 50.5305C100.423 50.5305 97.7688 53.2486 97.7688 56.6016C97.7688 59.9546 100.423 62.6727 103.697 62.6727Z" fill="#37A8EB"/>
<path d="M120.022 62.6727C123.296 62.6727 125.95 59.9546 125.95 56.6016C125.95 53.2486 123.296 50.5305 120.022 50.5305C116.748 50.5305 114.094 53.2486 114.094 56.6016C114.094 59.9546 116.748 62.6727 120.022 62.6727Z" fill="#37A8EB"/>
<path d="M136.347 62.6727C139.621 62.6727 142.275 59.9546 142.275 56.6016C142.275 53.2486 139.621 50.5305 136.347 50.5305C133.073 50.5305 130.419 53.2486 130.419 56.6016C130.419 59.9546 133.073 62.6727 136.347 62.6727Z" fill="#37A8EB"/>
<path d="M153.128 62.6727C156.402 62.6727 159.056 59.9546 159.056 56.6016C159.056 53.2486 156.402 50.5305 153.128 50.5305C149.854 50.5305 147.2 53.2486 147.2 56.6016C147.2 59.9546 149.854 62.6727 153.128 62.6727Z" fill="#37A8EB"/>
<path d="M169.453 62.6727C172.727 62.6727 175.381 59.9546 175.381 56.6016C175.381 53.2486 172.727 50.5305 169.453 50.5305C166.179 50.5305 163.525 53.2486 163.525 56.6016C163.525 59.9546 166.179 62.6727 169.453 62.6727Z" fill="#37A8EB"/>
<path d="M185.687 62.6727C188.961 62.6727 191.615 59.9546 191.615 56.6016C191.615 53.2486 188.961 50.5305 185.687 50.5305C182.413 50.5305 179.759 53.2486 179.759 56.6016C179.759 59.9546 182.413 62.6727 185.687 62.6727Z" fill="#37A8EB"/>
<path d="M202.013 62.6727C205.287 62.6727 207.941 59.9546 207.941 56.6016C207.941 53.2486 205.287 50.5305 202.013 50.5305C198.739 50.5305 196.084 53.2486 196.084 56.6016C196.084 59.9546 198.739 62.6727 202.013 62.6727Z" fill="#37A8EB"/>
<path d="M218.337 62.6727C221.611 62.6727 224.265 59.9546 224.265 56.6016C224.265 53.2486 221.611 50.5305 218.337 50.5305C215.063 50.5305 212.409 53.2486 212.409 56.6016C212.409 59.9546 215.063 62.6727 218.337 62.6727Z" fill="#37A8EB"/>
<path d="M234.662 62.6727C237.937 62.6727 240.591 59.9546 240.591 56.6016C240.591 53.2486 237.937 50.5305 234.662 50.5305C231.388 50.5305 228.734 53.2486 228.734 56.6016C228.734 59.9546 231.388 62.6727 234.662 62.6727Z" fill="#37A8EB"/>
<path d="M250.988 62.6727C254.262 62.6727 256.916 59.9546 256.916 56.6016C256.916 53.2486 254.262 50.5305 250.988 50.5305C247.714 50.5305 245.06 53.2486 245.06 56.6016C245.06 59.9546 247.714 62.6727 250.988 62.6727Z" fill="#37A8EB"/>
<path d="M267.222 62.6727C270.496 62.6727 273.15 59.9546 273.15 56.6016C273.15 53.2486 270.496 50.5305 267.222 50.5305C263.948 50.5305 261.293 53.2486 261.293 56.6016C261.293 59.9546 263.948 62.6727 267.222 62.6727Z" fill="#37A8EB"/>
<path d="M283.547 62.6727C286.821 62.6727 289.475 59.9546 289.475 56.6016C289.475 53.2486 286.821 50.5305 283.547 50.5305C280.273 50.5305 277.619 53.2486 277.619 56.6016C277.619 59.9546 280.273 62.6727 283.547 62.6727Z" fill="#37A8EB"/>
<path d="M299.872 62.6727C303.146 62.6727 305.8 59.9546 305.8 56.6016C305.8 53.2486 303.146 50.5305 299.872 50.5305C296.598 50.5305 293.944 53.2486 293.944 56.6016C293.944 59.9546 296.598 62.6727 299.872 62.6727Z" fill="#37A8EB"/>
<path d="M332.978 62.6727C336.252 62.6727 338.906 59.9546 338.906 56.6016C338.906 53.2486 336.252 50.5305 332.978 50.5305C329.704 50.5305 327.05 53.2486 327.05 56.6016C327.05 59.9546 329.704 62.6727 332.978 62.6727Z" fill="#37A8EB"/>
<path d="M398.188 62.6727C401.462 62.6727 404.116 59.9546 404.116 56.6016C404.116 53.2486 401.462 50.5305 398.188 50.5305C394.914 50.5305 392.259 53.2486 392.259 56.6016C392.259 59.9546 394.914 62.6727 398.188 62.6727Z" fill="#37A8EB"/>
<path d="M414.513 62.6727C417.787 62.6727 420.442 59.9546 420.442 56.6016C420.442 53.2486 417.787 50.5305 414.513 50.5305C411.239 50.5305 408.585 53.2486 408.585 56.6016C408.585 59.9546 411.239 62.6727 414.513 62.6727Z" fill="#37A8EB"/>
<path d="M430.838 62.6727C434.112 62.6727 436.766 59.9546 436.766 56.6016C436.766 53.2486 434.112 50.5305 430.838 50.5305C427.564 50.5305 424.91 53.2486 424.91 56.6016C424.91 59.9546 427.564 62.6727 430.838 62.6727Z" fill="#37A8EB"/>
<path d="M5.92813 79.3915C9.20215 79.3915 11.8563 76.6734 11.8563 73.3204C11.8563 69.9674 9.20215 67.2493 5.92813 67.2493C2.65411 67.2493 0 69.9674 0 73.3204C0 76.6734 2.65411 79.3915 5.92813 79.3915Z" fill="#DBB906"/>
<path d="M22.1618 79.3915C25.4358 79.3915 28.0899 76.6734 28.0899 73.3204C28.0899 69.9674 25.4358 67.2493 22.1618 67.2493C18.8878 67.2493 16.2336 69.9674 16.2336 73.3204C16.2336 76.6734 18.8878 79.3915 22.1618 79.3915Z" fill="#3BD9E3"/>
<path d="M38.4867 79.3915C41.7607 79.3915 44.4149 76.6734 44.4149 73.3204C44.4149 69.9674 41.7607 67.2493 38.4867 67.2493C35.2127 67.2493 32.5586 69.9674 32.5586 73.3204C32.5586 76.6734 35.2127 79.3915 38.4867 79.3915Z" fill="#3BD9E3"/>
<path d="M54.8124 79.3915C58.0864 79.3915 60.7405 76.6734 60.7405 73.3204C60.7405 69.9674 58.0864 67.2493 54.8124 67.2493C51.5384 67.2493 48.8843 69.9674 48.8843 73.3204C48.8843 76.6734 51.5384 79.3915 54.8124 79.3915Z" fill="#3BD9E3"/>
<path d="M71.1374 79.3915C74.4114 79.3915 77.0655 76.6734 77.0655 73.3204C77.0655 69.9674 74.4114 67.2493 71.1374 67.2493C67.8633 67.2493 65.2092 69.9674 65.2092 73.3204C65.2092 76.6734 67.8633 79.3915 71.1374 79.3915Z" fill="#3BD9E3"/>
<path d="M87.463 79.3915C90.7371 79.3915 93.3912 76.6734 93.3912 73.3204C93.3912 69.9674 90.7371 67.2493 87.463 67.2493C84.189 67.2493 81.5349 69.9674 81.5349 73.3204C81.5349 76.6734 84.189 79.3915 87.463 79.3915Z" fill="#3BD9E3"/>
<path d="M103.697 79.3915C106.971 79.3915 109.625 76.6734 109.625 73.3204C109.625 69.9674 106.971 67.2493 103.697 67.2493C100.423 67.2493 97.7688 69.9674 97.7688 73.3204C97.7688 76.6734 100.423 79.3915 103.697 79.3915Z" fill="#3BD9E3"/>
<path d="M120.022 79.3915C123.296 79.3915 125.95 76.6734 125.95 73.3204C125.95 69.9674 123.296 67.2493 120.022 67.2493C116.748 67.2493 114.094 69.9674 114.094 73.3204C114.094 76.6734 116.748 79.3915 120.022 79.3915Z" fill="#37A8EB"/>
<path d="M136.347 79.3915C139.621 79.3915 142.275 76.6734 142.275 73.3204C142.275 69.9674 139.621 67.2493 136.347 67.2493C133.073 67.2493 130.419 69.9674 130.419 73.3204C130.419 76.6734 133.073 79.3915 136.347 79.3915Z" fill="#37A8EB"/>
<path d="M153.128 79.3915C156.402 79.3915 159.056 76.6734 159.056 73.3204C159.056 69.9674 156.402 67.2493 153.128 67.2493C149.854 67.2493 147.2 69.9674 147.2 73.3204C147.2 76.6734 149.854 79.3915 153.128 79.3915Z" fill="#37A8EB"/>
<path d="M169.453 79.3915C172.727 79.3915 175.381 76.6734 175.381 73.3204C175.381 69.9674 172.727 67.2493 169.453 67.2493C166.179 67.2493 163.525 69.9674 163.525 73.3204C163.525 76.6734 166.179 79.3915 169.453 79.3915Z" fill="#37A8EB"/>
<path d="M185.687 79.3915C188.961 79.3915 191.615 76.6734 191.615 73.3204C191.615 69.9674 188.961 67.2493 185.687 67.2493C182.413 67.2493 179.759 69.9674 179.759 73.3204C179.759 76.6734 182.413 79.3915 185.687 79.3915Z" fill="#37A8EB"/>
<path d="M202.013 79.3915C205.287 79.3915 207.941 76.6734 207.941 73.3204C207.941 69.9674 205.287 67.2493 202.013 67.2493C198.739 67.2493 196.084 69.9674 196.084 73.3204C196.084 76.6734 198.739 79.3915 202.013 79.3915Z" fill="#37A8EB"/>
<path d="M218.337 79.3915C221.611 79.3915 224.265 76.6734 224.265 73.3204C224.265 69.9674 221.611 67.2493 218.337 67.2493C215.063 67.2493 212.409 69.9674 212.409 73.3204C212.409 76.6734 215.063 79.3915 218.337 79.3915Z" fill="#37A8EB"/>
<path d="M234.662 79.3915C237.937 79.3915 240.591 76.6734 240.591 73.3204C240.591 69.9674 237.937 67.2493 234.662 67.2493C231.388 67.2493 228.734 69.9674 228.734 73.3204C228.734 76.6734 231.388 79.3915 234.662 79.3915Z" fill="#37A8EB"/>
<path d="M250.988 79.3915C254.262 79.3915 256.916 76.6734 256.916 73.3204C256.916 69.9674 254.262 67.2493 250.988 67.2493C247.714 67.2493 245.06 69.9674 245.06 73.3204C245.06 76.6734 247.714 79.3915 250.988 79.3915Z" fill="#37A8EB"/>
<path d="M267.222 79.3915C270.496 79.3915 273.15 76.6734 273.15 73.3204C273.15 69.9674 270.496 67.2493 267.222 67.2493C263.948 67.2493 261.293 69.9674 261.293 73.3204C261.293 76.6734 263.948 79.3915 267.222 79.3915Z" fill="#37A8EB"/>
<path d="M283.547 79.3915C286.821 79.3915 289.475 76.6734 289.475 73.3204C289.475 69.9674 286.821 67.2493 283.547 67.2493C280.273 67.2493 277.619 69.9674 277.619 73.3204C277.619 76.6734 280.273 79.3915 283.547 79.3915Z" fill="#37A8EB"/>
<path d="M299.872 79.3915C303.146 79.3915 305.8 76.6734 305.8 73.3204C305.8 69.9674 303.146 67.2493 299.872 67.2493C296.598 67.2493 293.944 69.9674 293.944 73.3204C293.944 76.6734 296.598 79.3915 299.872 79.3915Z" fill="#37A8EB"/>
<path d="M316.653 79.3915C319.927 79.3915 322.582 76.6734 322.582 73.3204C322.582 69.9674 319.927 67.2493 316.653 67.2493C313.379 67.2493 310.725 69.9674 310.725 73.3204C310.725 76.6734 313.379 79.3915 316.653 79.3915Z" fill="#37A8EB"/>
<path d="M332.978 79.3915C336.252 79.3915 338.906 76.6734 338.906 73.3204C338.906 69.9674 336.252 67.2493 332.978 67.2493C329.704 67.2493 327.05 69.9674 327.05 73.3204C327.05 76.6734 329.704 79.3915 332.978 79.3915Z" fill="#37A8EB"/>
<path d="M349.212 79.3915C352.486 79.3915 355.14 76.6734 355.14 73.3204C355.14 69.9674 352.486 67.2493 349.212 67.2493C345.938 67.2493 343.284 69.9674 343.284 73.3204C343.284 76.6734 345.938 79.3915 349.212 79.3915Z" fill="#37A8EB"/>
<path d="M381.863 79.3915C385.137 79.3915 387.791 76.6734 387.791 73.3204C387.791 69.9674 385.137 67.2493 381.863 67.2493C378.589 67.2493 375.935 69.9674 375.935 73.3204C375.935 76.6734 378.589 79.3915 381.863 79.3915Z" fill="#37A8EB"/>
<path d="M398.188 79.3915C401.462 79.3915 404.116 76.6734 404.116 73.3204C404.116 69.9674 401.462 67.2493 398.188 67.2493C394.914 67.2493 392.259 69.9674 392.259 73.3204C392.259 76.6734 394.914 79.3915 398.188 79.3915Z" fill="#37A8EB"/>
<path d="M414.513 79.3915C417.787 79.3915 420.442 76.6734 420.442 73.3204C420.442 69.9674 417.787 67.2493 414.513 67.2493C411.239 67.2493 408.585 69.9674 408.585 73.3204C408.585 76.6734 411.239 79.3915 414.513 79.3915Z" fill="#37A8EB"/>
<path d="M430.838 79.3915C434.112 79.3915 436.766 76.6734 436.766 73.3204C436.766 69.9674 434.112 67.2493 430.838 67.2493C427.564 67.2493 424.91 69.9674 424.91 73.3204C424.91 76.6734 427.564 79.3915 430.838 79.3915Z" fill="#37A8EB"/>
<path d="M5.92813 96.1107C9.20215 96.1107 11.8563 93.3926 11.8563 90.0396C11.8563 86.6866 9.20215 83.9685 5.92813 83.9685C2.65411 83.9685 0 86.6866 0 90.0396C0 93.3926 2.65411 96.1107 5.92813 96.1107Z" fill="#37A8EB"/>
<path d="M22.1618 96.1107C25.4358 96.1107 28.0899 93.3926 28.0899 90.0396C28.0899 86.6866 25.4358 83.9685 22.1618 83.9685C18.8878 83.9685 16.2336 86.6866 16.2336 90.0396C16.2336 93.3926 18.8878 96.1107 22.1618 96.1107Z" fill="#37A8EB"/>
<path d="M38.4867 96.1107C41.7607 96.1107 44.4149 93.3926 44.4149 90.0396C44.4149 86.6866 41.7607 83.9685 38.4867 83.9685C35.2127 83.9685 32.5586 86.6866 32.5586 90.0396C32.5586 93.3926 35.2127 96.1107 38.4867 96.1107Z" fill="#37A8EB"/>
<path d="M54.8124 96.1107C58.0864 96.1107 60.7405 93.3926 60.7405 90.0396C60.7405 86.6866 58.0864 83.9685 54.8124 83.9685C51.5384 83.9685 48.8843 86.6866 48.8843 90.0396C48.8843 93.3926 51.5384 96.1107 54.8124 96.1107Z" fill="#37A8EB"/>
<path d="M71.1374 96.1107C74.4114 96.1107 77.0655 93.3926 77.0655 90.0396C77.0655 86.6866 74.4114 83.9685 71.1374 83.9685C67.8633 83.9685 65.2092 86.6866 65.2092 90.0396C65.2092 93.3926 67.8633 96.1107 71.1374 96.1107Z" fill="#37A8EB"/>
<path d="M87.463 96.1107C90.7371 96.1107 93.3912 93.3926 93.3912 90.0396C93.3912 86.6866 90.7371 83.9685 87.463 83.9685C84.189 83.9685 81.5349 86.6866 81.5349 90.0396C81.5349 93.3926 84.189 96.1107 87.463 96.1107Z" fill="#37A8EB"/>
<path d="M103.697 96.1107C106.971 96.1107 109.625 93.3926 109.625 90.0396C109.625 86.6866 106.971 83.9685 103.697 83.9685C100.423 83.9685 97.7688 86.6866 97.7688 90.0396C97.7688 93.3926 100.423 96.1107 103.697 96.1107Z" fill="#3BD9E3"/>
<path d="M120.022 96.1107C123.296 96.1107 125.95 93.3926 125.95 90.0396C125.95 86.6866 123.296 83.9685 120.022 83.9685C116.748 83.9685 114.094 86.6866 114.094 90.0396C114.094 93.3926 116.748 96.1107 120.022 96.1107Z" fill="#37A8EB"/>
<path d="M136.347 96.1107C139.621 96.1107 142.275 93.3926 142.275 90.0396C142.275 86.6866 139.621 83.9685 136.347 83.9685C133.073 83.9685 130.419 86.6866 130.419 90.0396C130.419 93.3926 133.073 96.1107 136.347 96.1107Z" fill="#37A8EB"/>
<path d="M153.128 96.1107C156.402 96.1107 159.056 93.3926 159.056 90.0396C159.056 86.6866 156.402 83.9685 153.128 83.9685C149.854 83.9685 147.2 86.6866 147.2 90.0396C147.2 93.3926 149.854 96.1107 153.128 96.1107Z" fill="#37A8EB"/>
<path d="M169.453 96.1107C172.727 96.1107 175.381 93.3926 175.381 90.0396C175.381 86.6866 172.727 83.9685 169.453 83.9685C166.179 83.9685 163.525 86.6866 163.525 90.0396C163.525 93.3926 166.179 96.1107 169.453 96.1107Z" fill="#37A8EB"/>
<path d="M185.687 96.1107C188.961 96.1107 191.615 93.3926 191.615 90.0396C191.615 86.6866 188.961 83.9685 185.687 83.9685C182.413 83.9685 179.759 86.6866 179.759 90.0396C179.759 93.3926 182.413 96.1107 185.687 96.1107Z" fill="#37A8EB"/>
<path d="M202.013 96.1107C205.287 96.1107 207.941 93.3926 207.941 90.0396C207.941 86.6866 205.287 83.9685 202.013 83.9685C198.739 83.9685 196.084 86.6866 196.084 90.0396C196.084 93.3926 198.739 96.1107 202.013 96.1107Z" fill="#37A8EB"/>
<path d="M218.337 96.1107C221.611 96.1107 224.265 93.3926 224.265 90.0396C224.265 86.6866 221.611 83.9685 218.337 83.9685C215.063 83.9685 212.409 86.6866 212.409 90.0396C212.409 93.3926 215.063 96.1107 218.337 96.1107Z" fill="#37A8EB"/>
<path d="M234.662 96.1107C237.937 96.1107 240.591 93.3926 240.591 90.0396C240.591 86.6866 237.937 83.9685 234.662 83.9685C231.388 83.9685 228.734 86.6866 228.734 90.0396C228.734 93.3926 231.388 96.1107 234.662 96.1107Z" fill="#37A8EB"/>
<path d="M250.988 96.1107C254.262 96.1107 256.916 93.3926 256.916 90.0396C256.916 86.6866 254.262 83.9685 250.988 83.9685C247.714 83.9685 245.06 86.6866 245.06 90.0396C245.06 93.3926 247.714 96.1107 250.988 96.1107Z" fill="#37A8EB"/>
<path d="M267.222 96.1107C270.496 96.1107 273.15 93.3926 273.15 90.0396C273.15 86.6866 270.496 83.9685 267.222 83.9685C263.948 83.9685 261.293 86.6866 261.293 90.0396C261.293 93.3926 263.948 96.1107 267.222 96.1107Z" fill="#37A8EB"/>
<path d="M283.547 96.1107C286.821 96.1107 289.475 93.3926 289.475 90.0396C289.475 86.6866 286.821 83.9685 283.547 83.9685C280.273 83.9685 277.619 86.6866 277.619 90.0396C277.619 93.3926 280.273 96.1107 283.547 96.1107Z" fill="#37A8EB"/>
<path d="M299.872 96.1107C303.146 96.1107 305.8 93.3926 305.8 90.0396C305.8 86.6866 303.146 83.9685 299.872 83.9685C296.598 83.9685 293.944 86.6866 293.944 90.0396C293.944 93.3926 296.598 96.1107 299.872 96.1107Z" fill="#37A8EB"/>
<path d="M316.653 96.1107C319.927 96.1107 322.582 93.3926 322.582 90.0396C322.582 86.6866 319.927 83.9685 316.653 83.9685C313.379 83.9685 310.725 86.6866 310.725 90.0396C310.725 93.3926 313.379 96.1107 316.653 96.1107Z" fill="#37A8EB"/>
<path d="M332.978 96.1107C336.252 96.1107 338.906 93.3926 338.906 90.0396C338.906 86.6866 336.252 83.9685 332.978 83.9685C329.704 83.9685 327.05 86.6866 327.05 90.0396C327.05 93.3926 329.704 96.1107 332.978 96.1107Z" fill="#37A8EB"/>
<path d="M349.212 96.1107C352.486 96.1107 355.14 93.3926 355.14 90.0396C355.14 86.6866 352.486 83.9685 349.212 83.9685C345.938 83.9685 343.284 86.6866 343.284 90.0396C343.284 93.3926 345.938 96.1107 349.212 96.1107Z" fill="#37A8EB"/>
<path d="M365.538 96.1107C368.812 96.1107 371.466 93.3926 371.466 90.0396C371.466 86.6866 368.812 83.9685 365.538 83.9685C362.263 83.9685 359.609 86.6866 359.609 90.0396C359.609 93.3926 362.263 96.1107 365.538 96.1107Z" fill="#37A8EB"/>
<path d="M381.863 96.1107C385.137 96.1107 387.791 93.3926 387.791 90.0396C387.791 86.6866 385.137 83.9685 381.863 83.9685C378.589 83.9685 375.935 86.6866 375.935 90.0396C375.935 93.3926 378.589 96.1107 381.863 96.1107Z" fill="#37A8EB"/>
<path d="M398.188 96.1107C401.462 96.1107 404.116 93.3926 404.116 90.0396C404.116 86.6866 401.462 83.9685 398.188 83.9685C394.914 83.9685 392.259 86.6866 392.259 90.0396C392.259 93.3926 394.914 96.1107 398.188 96.1107Z" fill="#37A8EB"/>
<path d="M414.513 96.1107C417.787 96.1107 420.442 93.3926 420.442 90.0396C420.442 86.6866 417.787 83.9685 414.513 83.9685C411.239 83.9685 408.585 86.6866 408.585 90.0396C408.585 93.3926 411.239 96.1107 414.513 96.1107Z" fill="#37A8EB"/>
<path d="M5.92813 112.736C9.20215 112.736 11.8563 110.018 11.8563 106.665C11.8563 103.312 9.20215 100.594 5.92813 100.594C2.65411 100.594 0 103.312 0 106.665C0 110.018 2.65411 112.736 5.92813 112.736Z" fill="#37A8EB"/>
<path d="M22.1618 112.736C25.4358 112.736 28.0899 110.018 28.0899 106.665C28.0899 103.312 25.4358 100.594 22.1618 100.594C18.8878 100.594 16.2336 103.312 16.2336 106.665C16.2336 110.018 18.8878 112.736 22.1618 112.736Z" fill="#37A8EB"/>
<path d="M38.4867 112.736C41.7607 112.736 44.4149 110.018 44.4149 106.665C44.4149 103.312 41.7607 100.594 38.4867 100.594C35.2127 100.594 32.5586 103.312 32.5586 106.665C32.5586 110.018 35.2127 112.736 38.4867 112.736Z" fill="#37A8EB"/>
<path d="M54.8124 112.736C58.0864 112.736 60.7405 110.018 60.7405 106.665C60.7405 103.312 58.0864 100.594 54.8124 100.594C51.5384 100.594 48.8843 103.312 48.8843 106.665C48.8843 110.018 51.5384 112.736 54.8124 112.736Z" fill="#37A8EB"/>
<path d="M71.1374 112.736C74.4114 112.736 77.0655 110.018 77.0655 106.665C77.0655 103.312 74.4114 100.594 71.1374 100.594C67.8633 100.594 65.2092 103.312 65.2092 106.665C65.2092 110.018 67.8633 112.736 71.1374 112.736Z" fill="#37A8EB"/>
<path d="M87.463 112.736C90.7371 112.736 93.3912 110.018 93.3912 106.665C93.3912 103.312 90.7371 100.594 87.463 100.594C84.189 100.594 81.5349 103.312 81.5349 106.665C81.5349 110.018 84.189 112.736 87.463 112.736Z" fill="#37A8EB"/>
<path d="M103.697 112.736C106.971 112.736 109.625 110.018 109.625 106.665C109.625 103.312 106.971 100.594 103.697 100.594C100.423 100.594 97.7688 103.312 97.7688 106.665C97.7688 110.018 100.423 112.736 103.697 112.736Z" fill="#3BD9E3"/>
<path d="M120.022 112.736C123.296 112.736 125.95 110.018 125.95 106.665C125.95 103.312 123.296 100.594 120.022 100.594C116.748 100.594 114.094 103.312 114.094 106.665C114.094 110.018 116.748 112.736 120.022 112.736Z" fill="#37A8EB"/>
<path d="M136.347 112.736C139.621 112.736 142.275 110.018 142.275 106.665C142.275 103.312 139.621 100.594 136.347 100.594C133.073 100.594 130.419 103.312 130.419 106.665C130.419 110.018 133.073 112.736 136.347 112.736Z" fill="#37A8EB"/>
<path d="M153.128 112.736C156.402 112.736 159.056 110.018 159.056 106.665C159.056 103.312 156.402 100.594 153.128 100.594C149.854 100.594 147.2 103.312 147.2 106.665C147.2 110.018 149.854 112.736 153.128 112.736Z" fill="#37A8EB"/>
<path d="M169.453 112.736C172.727 112.736 175.381 110.018 175.381 106.665C175.381 103.312 172.727 100.594 169.453 100.594C166.179 100.594 163.525 103.312 163.525 106.665C163.525 110.018 166.179 112.736 169.453 112.736Z" fill="#37A8EB"/>
<path d="M185.687 112.736C188.961 112.736 191.615 110.018 191.615 106.665C191.615 103.312 188.961 100.594 185.687 100.594C182.413 100.594 179.759 103.312 179.759 106.665C179.759 110.018 182.413 112.736 185.687 112.736Z" fill="#37A8EB"/>
<path d="M202.013 112.736C205.287 112.736 207.941 110.018 207.941 106.665C207.941 103.312 205.287 100.594 202.013 100.594C198.739 100.594 196.084 103.312 196.084 106.665C196.084 110.018 198.739 112.736 202.013 112.736Z" fill="#37A8EB"/>
<path d="M218.337 112.736C221.611 112.736 224.265 110.018 224.265 106.665C224.265 103.312 221.611 100.594 218.337 100.594C215.063 100.594 212.409 103.312 212.409 106.665C212.409 110.018 215.063 112.736 218.337 112.736Z" fill="#37A8EB"/>
<path d="M234.662 112.736C237.937 112.736 240.591 110.018 240.591 106.665C240.591 103.312 237.937 100.594 234.662 100.594C231.388 100.594 228.734 103.312 228.734 106.665C228.734 110.018 231.388 112.736 234.662 112.736Z" fill="#37A8EB"/>
<path d="M250.988 112.736C254.262 112.736 256.916 110.018 256.916 106.665C256.916 103.312 254.262 100.594 250.988 100.594C247.714 100.594 245.06 103.312 245.06 106.665C245.06 110.018 247.714 112.736 250.988 112.736Z" fill="#37A8EB"/>
<path d="M267.222 112.736C270.496 112.736 273.15 110.018 273.15 106.665C273.15 103.312 270.496 100.594 267.222 100.594C263.948 100.594 261.293 103.312 261.293 106.665C261.293 110.018 263.948 112.736 267.222 112.736Z" fill="#37A8EB"/>
<path d="M283.547 112.736C286.821 112.736 289.475 110.018 289.475 106.665C289.475 103.312 286.821 100.594 283.547 100.594C280.273 100.594 277.619 103.312 277.619 106.665C277.619 110.018 280.273 112.736 283.547 112.736Z" fill="#37A8EB"/>
<path d="M299.872 112.736C303.146 112.736 305.8 110.018 305.8 106.665C305.8 103.312 303.146 100.594 299.872 100.594C296.598 100.594 293.944 103.312 293.944 106.665C293.944 110.018 296.598 112.736 299.872 112.736Z" fill="#37A8EB"/>
<path d="M316.653 112.736C319.927 112.736 322.582 110.018 322.582 106.665C322.582 103.312 319.927 100.594 316.653 100.594C313.379 100.594 310.725 103.312 310.725 106.665C310.725 110.018 313.379 112.736 316.653 112.736Z" fill="#37A8EB"/>
<path d="M332.978 112.736C336.252 112.736 338.906 110.018 338.906 106.665C338.906 103.312 336.252 100.594 332.978 100.594C329.704 100.594 327.05 103.312 327.05 106.665C327.05 110.018 329.704 112.736 332.978 112.736Z" fill="#37A8EB"/>
<path d="M349.212 112.736C352.486 112.736 355.14 110.018 355.14 106.665C355.14 103.312 352.486 100.594 349.212 100.594C345.938 100.594 343.284 103.312 343.284 106.665C343.284 110.018 345.938 112.736 349.212 112.736Z" fill="#37A8EB"/>
<path d="M365.538 112.736C368.812 112.736 371.466 110.018 371.466 106.665C371.466 103.312 368.812 100.594 365.538 100.594C362.263 100.594 359.609 103.312 359.609 106.665C359.609 110.018 362.263 112.736 365.538 112.736Z" fill="#37A8EB"/>
<path d="M381.863 112.736C385.137 112.736 387.791 110.018 387.791 106.665C387.791 103.312 385.137 100.594 381.863 100.594C378.589 100.594 375.935 103.312 375.935 106.665C375.935 110.018 378.589 112.736 381.863 112.736Z" fill="#37A8EB"/>
<path d="M398.188 112.736C401.462 112.736 404.116 110.018 404.116 106.665C404.116 103.312 401.462 100.594 398.188 100.594C394.914 100.594 392.259 103.312 392.259 106.665C392.259 110.018 394.914 112.736 398.188 112.736Z" fill="#37A8EB"/>
<path d="M414.513 112.736C417.787 112.736 420.442 110.018 420.442 106.665C420.442 103.312 417.787 100.594 414.513 100.594C411.239 100.594 408.585 103.312 408.585 106.665C408.585 110.018 411.239 112.736 414.513 112.736Z" fill="#37A8EB"/>
<path d="M22.1618 129.455C25.4358 129.455 28.0899 126.737 28.0899 123.384C28.0899 120.031 25.4358 117.313 22.1618 117.313C18.8878 117.313 16.2336 120.031 16.2336 123.384C16.2336 126.737 18.8878 129.455 22.1618 129.455Z" fill="#37A8EB"/>
<path d="M38.4867 129.455C41.7607 129.455 44.4149 126.737 44.4149 123.384C44.4149 120.031 41.7607 117.313 38.4867 117.313C35.2127 117.313 32.5586 120.031 32.5586 123.384C32.5586 126.737 35.2127 129.455 38.4867 129.455Z" fill="#37A8EB"/>
<path d="M54.8124 129.455C58.0864 129.455 60.7405 126.737 60.7405 123.384C60.7405 120.031 58.0864 117.313 54.8124 117.313C51.5384 117.313 48.8843 120.031 48.8843 123.384C48.8843 126.737 51.5384 129.455 54.8124 129.455Z" fill="#37A8EB"/>
<path d="M71.1374 129.455C74.4114 129.455 77.0655 126.737 77.0655 123.384C77.0655 120.031 74.4114 117.313 71.1374 117.313C67.8633 117.313 65.2092 120.031 65.2092 123.384C65.2092 126.737 67.8633 129.455 71.1374 129.455Z" fill="#37A8EB"/>
<path d="M87.463 129.455C90.7371 129.455 93.3912 126.737 93.3912 123.384C93.3912 120.031 90.7371 117.313 87.463 117.313C84.189 117.313 81.5349 120.031 81.5349 123.384C81.5349 126.737 84.189 129.455 87.463 129.455Z" fill="#37A8EB"/>
<path d="M103.697 129.455C106.971 129.455 109.625 126.737 109.625 123.384C109.625 120.031 106.971 117.313 103.697 117.313C100.423 117.313 97.7688 120.031 97.7688 123.384C97.7688 126.737 100.423 129.455 103.697 129.455Z" fill="#3BD9E3"/>
<path d="M120.022 129.455C123.296 129.455 125.95 126.737 125.95 123.384C125.95 120.031 123.296 117.313 120.022 117.313C116.748 117.313 114.094 120.031 114.094 123.384C114.094 126.737 116.748 129.455 120.022 129.455Z" fill="#3BD9E3"/>
<path d="M136.347 129.455C139.621 129.455 142.275 126.737 142.275 123.384C142.275 120.031 139.621 117.313 136.347 117.313C133.073 117.313 130.419 120.031 130.419 123.384C130.419 126.737 133.073 129.455 136.347 129.455Z" fill="#3BD9E3"/>
<path d="M153.128 129.455C156.402 129.455 159.056 126.737 159.056 123.384C159.056 120.031 156.402 117.313 153.128 117.313C149.854 117.313 147.2 120.031 147.2 123.384C147.2 126.737 149.854 129.455 153.128 129.455Z" fill="#3BD9E3"/>
<path d="M169.453 129.455C172.727 129.455 175.381 126.737 175.381 123.384C175.381 120.031 172.727 117.313 169.453 117.313C166.179 117.313 163.525 120.031 163.525 123.384C163.525 126.737 166.179 129.455 169.453 129.455Z" fill="#3BD9E3"/>
<path d="M185.687 129.455C188.961 129.455 191.615 126.737 191.615 123.384C191.615 120.031 188.961 117.313 185.687 117.313C182.413 117.313 179.759 120.031 179.759 123.384C179.759 126.737 182.413 129.455 185.687 129.455Z" fill="#3BD9E3"/>
<path d="M202.013 129.455C205.287 129.455 207.941 126.737 207.941 123.384C207.941 120.031 205.287 117.313 202.013 117.313C198.739 117.313 196.084 120.031 196.084 123.384C196.084 126.737 198.739 129.455 202.013 129.455Z" fill="#3BD9E3"/>
<path d="M218.337 129.455C221.611 129.455 224.265 126.737 224.265 123.384C224.265 120.031 221.611 117.313 218.337 117.313C215.063 117.313 212.409 120.031 212.409 123.384C212.409 126.737 215.063 129.455 218.337 129.455Z" fill="#3BD9E3"/>
<path d="M234.662 129.455C237.937 129.455 240.591 126.737 240.591 123.384C240.591 120.031 237.937 117.313 234.662 117.313C231.388 117.313 228.734 120.031 228.734 123.384C228.734 126.737 231.388 129.455 234.662 129.455Z" fill="#3BD9E3"/>
<path d="M250.988 129.455C254.262 129.455 256.916 126.737 256.916 123.384C256.916 120.031 254.262 117.313 250.988 117.313C247.714 117.313 245.06 120.031 245.06 123.384C245.06 126.737 247.714 129.455 250.988 129.455Z" fill="#3BD9E3"/>
<path d="M267.222 129.455C270.496 129.455 273.15 126.737 273.15 123.384C273.15 120.031 270.496 117.313 267.222 117.313C263.948 117.313 261.293 120.031 261.293 123.384C261.293 126.737 263.948 129.455 267.222 129.455Z" fill="#3BD9E3"/>
<path d="M283.547 129.455C286.821 129.455 289.475 126.737 289.475 123.384C289.475 120.031 286.821 117.313 283.547 117.313C280.273 117.313 277.619 120.031 277.619 123.384C277.619 126.737 280.273 129.455 283.547 129.455Z" fill="#3BD9E3"/>
<path d="M299.872 129.455C303.146 129.455 305.8 126.737 305.8 123.384C305.8 120.031 303.146 117.313 299.872 117.313C296.598 117.313 293.944 120.031 293.944 123.384C293.944 126.737 296.598 129.455 299.872 129.455Z" fill="#3BD9E3"/>
<path d="M316.653 129.455C319.927 129.455 322.582 126.737 322.582 123.384C322.582 120.031 319.927 117.313 316.653 117.313C313.379 117.313 310.725 120.031 310.725 123.384C310.725 126.737 313.379 129.455 316.653 129.455Z" fill="#3BD9E3"/>
<path d="M332.978 129.455C336.252 129.455 338.906 126.737 338.906 123.384C338.906 120.031 336.252 117.313 332.978 117.313C329.704 117.313 327.05 120.031 327.05 123.384C327.05 126.737 329.704 129.455 332.978 129.455Z" fill="#37A8EB"/>
<path d="M349.212 129.455C352.486 129.455 355.14 126.737 355.14 123.384C355.14 120.031 352.486 117.313 349.212 117.313C345.938 117.313 343.284 120.031 343.284 123.384C343.284 126.737 345.938 129.455 349.212 129.455Z" fill="#37A8EB"/>
<path d="M365.538 129.455C368.812 129.455 371.466 126.737 371.466 123.384C371.466 120.031 368.812 117.313 365.538 117.313C362.263 117.313 359.609 120.031 359.609 123.384C359.609 126.737 362.263 129.455 365.538 129.455Z" fill="#37A8EB"/>
<path d="M381.863 129.455C385.137 129.455 387.791 126.737 387.791 123.384C387.791 120.031 385.137 117.313 381.863 117.313C378.589 117.313 375.935 120.031 375.935 123.384C375.935 126.737 378.589 129.455 381.863 129.455Z" fill="#37A8EB"/>
<path d="M398.188 129.455C401.462 129.455 404.116 126.737 404.116 123.384C404.116 120.031 401.462 117.313 398.188 117.313C394.914 117.313 392.259 120.031 392.259 123.384C392.259 126.737 394.914 129.455 398.188 129.455Z" fill="#37A8EB"/>
<path d="M414.513 129.455C417.787 129.455 420.442 126.737 420.442 123.384C420.442 120.031 417.787 117.313 414.513 117.313C411.239 117.313 408.585 120.031 408.585 123.384C408.585 126.737 411.239 129.455 414.513 129.455Z" fill="#37A8EB"/>
<path d="M22.1618 146.174C25.4358 146.174 28.0899 143.456 28.0899 140.103C28.0899 136.75 25.4358 134.032 22.1618 134.032C18.8878 134.032 16.2336 136.75 16.2336 140.103C16.2336 143.456 18.8878 146.174 22.1618 146.174Z" fill="#37A8EB"/>
<path d="M38.4867 146.174C41.7607 146.174 44.4149 143.456 44.4149 140.103C44.4149 136.75 41.7607 134.032 38.4867 134.032C35.2127 134.032 32.5586 136.75 32.5586 140.103C32.5586 143.456 35.2127 146.174 38.4867 146.174Z" fill="#37A8EB"/>
<path d="M54.8124 146.174C58.0864 146.174 60.7405 143.456 60.7405 140.103C60.7405 136.75 58.0864 134.032 54.8124 134.032C51.5384 134.032 48.8843 136.75 48.8843 140.103C48.8843 143.456 51.5384 146.174 54.8124 146.174Z" fill="#37A8EB"/>
<path d="M71.1374 146.174C74.4114 146.174 77.0655 143.456 77.0655 140.103C77.0655 136.75 74.4114 134.032 71.1374 134.032C67.8633 134.032 65.2092 136.75 65.2092 140.103C65.2092 143.456 67.8633 146.174 71.1374 146.174Z" fill="#37A8EB"/>
<path d="M87.463 146.174C90.7371 146.174 93.3912 143.456 93.3912 140.103C93.3912 136.75 90.7371 134.032 87.463 134.032C84.189 134.032 81.5349 136.75 81.5349 140.103C81.5349 143.456 84.189 146.174 87.463 146.174Z" fill="#37A8EB"/>
<path d="M103.697 146.174C106.971 146.174 109.625 143.456 109.625 140.103C109.625 136.75 106.971 134.032 103.697 134.032C100.423 134.032 97.7688 136.75 97.7688 140.103C97.7688 143.456 100.423 146.174 103.697 146.174Z" fill="#37A8EB"/>
<path d="M120.022 146.174C123.296 146.174 125.95 143.456 125.95 140.103C125.95 136.75 123.296 134.032 120.022 134.032C116.748 134.032 114.094 136.75 114.094 140.103C114.094 143.456 116.748 146.174 120.022 146.174Z" fill="#37A8EB"/>
<path d="M136.347 146.174C139.621 146.174 142.275 143.456 142.275 140.103C142.275 136.75 139.621 134.032 136.347 134.032C133.073 134.032 130.419 136.75 130.419 140.103C130.419 143.456 133.073 146.174 136.347 146.174Z" fill="#37A8EB"/>
<path d="M153.128 146.174C156.402 146.174 159.056 143.456 159.056 140.103C159.056 136.75 156.402 134.032 153.128 134.032C149.854 134.032 147.2 136.75 147.2 140.103C147.2 143.456 149.854 146.174 153.128 146.174Z" fill="#37A8EB"/>
<path d="M169.453 146.174C172.727 146.174 175.381 143.456 175.381 140.103C175.381 136.75 172.727 134.032 169.453 134.032C166.179 134.032 163.525 136.75 163.525 140.103C163.525 143.456 166.179 146.174 169.453 146.174Z" fill="#37A8EB"/>
<path d="M185.687 146.174C188.961 146.174 191.615 143.456 191.615 140.103C191.615 136.75 188.961 134.032 185.687 134.032C182.413 134.032 179.759 136.75 179.759 140.103C179.759 143.456 182.413 146.174 185.687 146.174Z" fill="#37A8EB"/>
<path d="M202.013 146.174C205.287 146.174 207.941 143.456 207.941 140.103C207.941 136.75 205.287 134.032 202.013 134.032C198.739 134.032 196.084 136.75 196.084 140.103C196.084 143.456 198.739 146.174 202.013 146.174Z" fill="#37A8EB"/>
<path d="M218.337 146.174C221.611 146.174 224.265 143.456 224.265 140.103C224.265 136.75 221.611 134.032 218.337 134.032C215.063 134.032 212.409 136.75 212.409 140.103C212.409 143.456 215.063 146.174 218.337 146.174Z" fill="#37A8EB"/>
<path d="M234.662 146.174C237.937 146.174 240.591 143.456 240.591 140.103C240.591 136.75 237.937 134.032 234.662 134.032C231.388 134.032 228.734 136.75 228.734 140.103C228.734 143.456 231.388 146.174 234.662 146.174Z" fill="#37A8EB"/>
<path d="M250.988 146.174C254.262 146.174 256.916 143.456 256.916 140.103C256.916 136.75 254.262 134.032 250.988 134.032C247.714 134.032 245.06 136.75 245.06 140.103C245.06 143.456 247.714 146.174 250.988 146.174Z" fill="#37A8EB"/>
<path d="M267.222 146.174C270.496 146.174 273.15 143.456 273.15 140.103C273.15 136.75 270.496 134.032 267.222 134.032C263.948 134.032 261.293 136.75 261.293 140.103C261.293 143.456 263.948 146.174 267.222 146.174Z" fill="#37A8EB"/>
<path d="M283.547 146.174C286.821 146.174 289.475 143.456 289.475 140.103C289.475 136.75 286.821 134.032 283.547 134.032C280.273 134.032 277.619 136.75 277.619 140.103C277.619 143.456 280.273 146.174 283.547 146.174Z" fill="#37A8EB"/>
<path d="M299.872 146.174C303.146 146.174 305.8 143.456 305.8 140.103C305.8 136.75 303.146 134.032 299.872 134.032C296.598 134.032 293.944 136.75 293.944 140.103C293.944 143.456 296.598 146.174 299.872 146.174Z" fill="#37A8EB"/>
<path d="M316.653 146.174C319.927 146.174 322.582 143.456 322.582 140.103C322.582 136.75 319.927 134.032 316.653 134.032C313.379 134.032 310.725 136.75 310.725 140.103C310.725 143.456 313.379 146.174 316.653 146.174Z" fill="#3BD9E3"/>
<path d="M332.978 146.174C336.252 146.174 338.906 143.456 338.906 140.103C338.906 136.75 336.252 134.032 332.978 134.032C329.704 134.032 327.05 136.75 327.05 140.103C327.05 143.456 329.704 146.174 332.978 146.174Z" fill="#3BD9E3"/>
<path d="M349.212 146.174C352.486 146.174 355.14 143.456 355.14 140.103C355.14 136.75 352.486 134.032 349.212 134.032C345.938 134.032 343.284 136.75 343.284 140.103C343.284 143.456 345.938 146.174 349.212 146.174Z" fill="#37A8EB"/>
<path d="M365.538 146.174C368.812 146.174 371.466 143.456 371.466 140.103C371.466 136.75 368.812 134.032 365.538 134.032C362.263 134.032 359.609 136.75 359.609 140.103C359.609 143.456 362.263 146.174 365.538 146.174Z" fill="#37A8EB"/>
<path d="M381.863 146.174C385.137 146.174 387.791 143.456 387.791 140.103C387.791 136.75 385.137 134.032 381.863 134.032C378.589 134.032 375.935 136.75 375.935 140.103C375.935 143.456 378.589 146.174 381.863 146.174Z" fill="#37A8EB"/>
<path d="M398.188 146.174C401.462 146.174 404.116 143.456 404.116 140.103C404.116 136.75 401.462 134.032 398.188 134.032C394.914 134.032 392.259 136.75 392.259 140.103C392.259 143.456 394.914 146.174 398.188 146.174Z" fill="#37A8EB"/>
<path d="M414.513 146.174C417.787 146.174 420.442 143.456 420.442 140.103C420.442 136.75 417.787 134.032 414.513 134.032C411.239 134.032 408.585 136.75 408.585 140.103C408.585 143.456 411.239 146.174 414.513 146.174Z" fill="#37A8EB"/>
<path d="M38.4867 162.893C41.7607 162.893 44.4149 160.175 44.4149 156.822C44.4149 153.469 41.7607 150.751 38.4867 150.751C35.2127 150.751 32.5586 153.469 32.5586 156.822C32.5586 160.175 35.2127 162.893 38.4867 162.893Z" fill="#37A8EB"/>
<path d="M54.8124 162.893C58.0864 162.893 60.7405 160.175 60.7405 156.822C60.7405 153.469 58.0864 150.751 54.8124 150.751C51.5384 150.751 48.8843 153.469 48.8843 156.822C48.8843 160.175 51.5384 162.893 54.8124 162.893Z" fill="#37A8EB"/>
<path d="M71.1374 162.893C74.4114 162.893 77.0655 160.175 77.0655 156.822C77.0655 153.469 74.4114 150.751 71.1374 150.751C67.8633 150.751 65.2092 153.469 65.2092 156.822C65.2092 160.175 67.8633 162.893 71.1374 162.893Z" fill="#37A8EB"/>
<path d="M87.463 162.893C90.7371 162.893 93.3912 160.175 93.3912 156.822C93.3912 153.469 90.7371 150.751 87.463 150.751C84.189 150.751 81.5349 153.469 81.5349 156.822C81.5349 160.175 84.189 162.893 87.463 162.893Z" fill="#37A8EB"/>
<path d="M103.697 162.893C106.971 162.893 109.625 160.175 109.625 156.822C109.625 153.469 106.971 150.751 103.697 150.751C100.423 150.751 97.7688 153.469 97.7688 156.822C97.7688 160.175 100.423 162.893 103.697 162.893Z" fill="#37A8EB"/>
<path d="M120.022 162.893C123.296 162.893 125.95 160.175 125.95 156.822C125.95 153.469 123.296 150.751 120.022 150.751C116.748 150.751 114.094 153.469 114.094 156.822C114.094 160.175 116.748 162.893 120.022 162.893Z" fill="#37A8EB"/>
<path d="M136.347 162.893C139.621 162.893 142.275 160.175 142.275 156.822C142.275 153.469 139.621 150.751 136.347 150.751C133.073 150.751 130.419 153.469 130.419 156.822C130.419 160.175 133.073 162.893 136.347 162.893Z" fill="#37A8EB"/>
<path d="M153.128 162.893C156.402 162.893 159.056 160.175 159.056 156.822C159.056 153.469 156.402 150.751 153.128 150.751C149.854 150.751 147.2 153.469 147.2 156.822C147.2 160.175 149.854 162.893 153.128 162.893Z" fill="#37A8EB"/>
<path d="M169.453 162.893C172.727 162.893 175.381 160.175 175.381 156.822C175.381 153.469 172.727 150.751 169.453 150.751C166.179 150.751 163.525 153.469 163.525 156.822C163.525 160.175 166.179 162.893 169.453 162.893Z" fill="#37A8EB"/>
<path d="M185.687 162.893C188.961 162.893 191.615 160.175 191.615 156.822C191.615 153.469 188.961 150.751 185.687 150.751C182.413 150.751 179.759 153.469 179.759 156.822C179.759 160.175 182.413 162.893 185.687 162.893Z" fill="#37A8EB"/>
<path d="M202.013 162.893C205.287 162.893 207.941 160.175 207.941 156.822C207.941 153.469 205.287 150.751 202.013 150.751C198.739 150.751 196.084 153.469 196.084 156.822C196.084 160.175 198.739 162.893 202.013 162.893Z" fill="#37A8EB"/>
<path d="M218.337 162.893C221.611 162.893 224.265 160.175 224.265 156.822C224.265 153.469 221.611 150.751 218.337 150.751C215.063 150.751 212.409 153.469 212.409 156.822C212.409 160.175 215.063 162.893 218.337 162.893Z" fill="#37A8EB"/>
<path d="M234.662 162.893C237.937 162.893 240.591 160.175 240.591 156.822C240.591 153.469 237.937 150.751 234.662 150.751C231.388 150.751 228.734 153.469 228.734 156.822C228.734 160.175 231.388 162.893 234.662 162.893Z" fill="#37A8EB"/>
<path d="M250.988 162.893C254.262 162.893 256.916 160.175 256.916 156.822C256.916 153.469 254.262 150.751 250.988 150.751C247.714 150.751 245.06 153.469 245.06 156.822C245.06 160.175 247.714 162.893 250.988 162.893Z" fill="#37A8EB"/>
<path d="M267.222 162.893C270.496 162.893 273.15 160.175 273.15 156.822C273.15 153.469 270.496 150.751 267.222 150.751C263.948 150.751 261.293 153.469 261.293 156.822C261.293 160.175 263.948 162.893 267.222 162.893Z" fill="#37A8EB"/>
<path d="M283.547 162.893C286.821 162.893 289.475 160.175 289.475 156.822C289.475 153.469 286.821 150.751 283.547 150.751C280.273 150.751 277.619 153.469 277.619 156.822C277.619 160.175 280.273 162.893 283.547 162.893Z" fill="#37A8EB"/>
<path d="M299.872 162.893C303.146 162.893 305.8 160.175 305.8 156.822C305.8 153.469 303.146 150.751 299.872 150.751C296.598 150.751 293.944 153.469 293.944 156.822C293.944 160.175 296.598 162.893 299.872 162.893Z" fill="#37A8EB"/>
<path d="M316.653 162.893C319.927 162.893 322.582 160.175 322.582 156.822C322.582 153.469 319.927 150.751 316.653 150.751C313.379 150.751 310.725 153.469 310.725 156.822C310.725 160.175 313.379 162.893 316.653 162.893Z" fill="#37A8EB"/>
<path d="M332.978 162.893C336.252 162.893 338.906 160.175 338.906 156.822C338.906 153.469 336.252 150.751 332.978 150.751C329.704 150.751 327.05 153.469 327.05 156.822C327.05 160.175 329.704 162.893 332.978 162.893Z" fill="#3BD9E3"/>
<path d="M349.212 162.893C352.486 162.893 355.14 160.175 355.14 156.822C355.14 153.469 352.486 150.751 349.212 150.751C345.938 150.751 343.284 153.469 343.284 156.822C343.284 160.175 345.938 162.893 349.212 162.893Z" fill="#3BD9E3"/>
<path d="M365.538 162.893C368.812 162.893 371.466 160.175 371.466 156.822C371.466 153.469 368.812 150.751 365.538 150.751C362.263 150.751 359.609 153.469 359.609 156.822C359.609 160.175 362.263 162.893 365.538 162.893Z" fill="#3BD9E3"/>
<path d="M381.863 162.893C385.137 162.893 387.791 160.175 387.791 156.822C387.791 153.469 385.137 150.751 381.863 150.751C378.589 150.751 375.935 153.469 375.935 156.822C375.935 160.175 378.589 162.893 381.863 162.893Z" fill="#37A8EB"/>
<path d="M398.188 162.893C401.462 162.893 404.116 160.175 404.116 156.822C404.116 153.469 401.462 150.751 398.188 150.751C394.914 150.751 392.259 153.469 392.259 156.822C392.259 160.175 394.914 162.893 398.188 162.893Z" fill="#37A8EB"/>
<path d="M414.513 162.893C417.787 162.893 420.442 160.175 420.442 156.822C420.442 153.469 417.787 150.751 414.513 150.751C411.239 150.751 408.585 153.469 408.585 156.822C408.585 160.175 411.239 162.893 414.513 162.893Z" fill="#37A8EB"/>
<path d="M38.4867 179.612C41.7607 179.612 44.4149 176.894 44.4149 173.541C44.4149 170.188 41.7607 167.47 38.4867 167.47C35.2127 167.47 32.5586 170.188 32.5586 173.541C32.5586 176.894 35.2127 179.612 38.4867 179.612Z" fill="#37A8EB"/>
<path d="M54.8124 179.612C58.0864 179.612 60.7405 176.894 60.7405 173.541C60.7405 170.188 58.0864 167.47 54.8124 167.47C51.5384 167.47 48.8843 170.188 48.8843 173.541C48.8843 176.894 51.5384 179.612 54.8124 179.612Z" fill="#37A8EB"/>
<path d="M71.1374 179.612C74.4114 179.612 77.0655 176.894 77.0655 173.541C77.0655 170.188 74.4114 167.47 71.1374 167.47C67.8633 167.47 65.2092 170.188 65.2092 173.541C65.2092 176.894 67.8633 179.612 71.1374 179.612Z" fill="#37A8EB"/>
<path d="M87.463 179.612C90.7371 179.612 93.3912 176.894 93.3912 173.541C93.3912 170.188 90.7371 167.47 87.463 167.47C84.189 167.47 81.5349 170.188 81.5349 173.541C81.5349 176.894 84.189 179.612 87.463 179.612Z" fill="#37A8EB"/>
<path d="M103.697 179.612C106.971 179.612 109.625 176.894 109.625 173.541C109.625 170.188 106.971 167.47 103.697 167.47C100.423 167.47 97.7688 170.188 97.7688 173.541C97.7688 176.894 100.423 179.612 103.697 179.612Z" fill="#37A8EB"/>
<path d="M120.022 179.612C123.296 179.612 125.95 176.894 125.95 173.541C125.95 170.188 123.296 167.47 120.022 167.47C116.748 167.47 114.094 170.188 114.094 173.541C114.094 176.894 116.748 179.612 120.022 179.612Z" fill="#37A8EB"/>
<path d="M136.347 179.612C139.621 179.612 142.275 176.894 142.275 173.541C142.275 170.188 139.621 167.47 136.347 167.47C133.073 167.47 130.419 170.188 130.419 173.541C130.419 176.894 133.073 179.612 136.347 179.612Z" fill="#37A8EB"/>
<path d="M153.128 179.612C156.402 179.612 159.056 176.894 159.056 173.541C159.056 170.188 156.402 167.47 153.128 167.47C149.854 167.47 147.2 170.188 147.2 173.541C147.2 176.894 149.854 179.612 153.128 179.612Z" fill="#37A8EB"/>
<path d="M169.453 179.612C172.727 179.612 175.381 176.894 175.381 173.541C175.381 170.188 172.727 167.47 169.453 167.47C166.179 167.47 163.525 170.188 163.525 173.541C163.525 176.894 166.179 179.612 169.453 179.612Z" fill="#37A8EB"/>
<path d="M185.687 179.612C188.961 179.612 191.615 176.894 191.615 173.541C191.615 170.188 188.961 167.47 185.687 167.47C182.413 167.47 179.759 170.188 179.759 173.541C179.759 176.894 182.413 179.612 185.687 179.612Z" fill="#37A8EB"/>
<path d="M202.013 179.612C205.287 179.612 207.941 176.894 207.941 173.541C207.941 170.188 205.287 167.47 202.013 167.47C198.739 167.47 196.084 170.188 196.084 173.541C196.084 176.894 198.739 179.612 202.013 179.612Z" fill="#37A8EB"/>
<path d="M218.337 179.612C221.611 179.612 224.265 176.894 224.265 173.541C224.265 170.188 221.611 167.47 218.337 167.47C215.063 167.47 212.409 170.188 212.409 173.541C212.409 176.894 215.063 179.612 218.337 179.612Z" fill="#37A8EB"/>
<path d="M234.662 179.612C237.937 179.612 240.591 176.894 240.591 173.541C240.591 170.188 237.937 167.47 234.662 167.47C231.388 167.47 228.734 170.188 228.734 173.541C228.734 176.894 231.388 179.612 234.662 179.612Z" fill="#37A8EB"/>
<path d="M250.988 179.612C254.262 179.612 256.916 176.894 256.916 173.541C256.916 170.188 254.262 167.47 250.988 167.47C247.714 167.47 245.06 170.188 245.06 173.541C245.06 176.894 247.714 179.612 250.988 179.612Z" fill="#37A8EB"/>
<path d="M267.222 179.612C270.496 179.612 273.15 176.894 273.15 173.541C273.15 170.188 270.496 167.47 267.222 167.47C263.948 167.47 261.293 170.188 261.293 173.541C261.293 176.894 263.948 179.612 267.222 179.612Z" fill="#37A8EB"/>
<path d="M283.547 179.612C286.821 179.612 289.475 176.894 289.475 173.541C289.475 170.188 286.821 167.47 283.547 167.47C280.273 167.47 277.619 170.188 277.619 173.541C277.619 176.894 280.273 179.612 283.547 179.612Z" fill="#37A8EB"/>
<path d="M299.872 179.612C303.146 179.612 305.8 176.894 305.8 173.541C305.8 170.188 303.146 167.47 299.872 167.47C296.598 167.47 293.944 170.188 293.944 173.541C293.944 176.894 296.598 179.612 299.872 179.612Z" fill="#37A8EB"/>
<path d="M316.653 179.612C319.927 179.612 322.582 176.894 322.582 173.541C322.582 170.188 319.927 167.47 316.653 167.47C313.379 167.47 310.725 170.188 310.725 173.541C310.725 176.894 313.379 179.612 316.653 179.612Z" fill="#37A8EB"/>
<path d="M332.978 179.612C336.252 179.612 338.906 176.894 338.906 173.541C338.906 170.188 336.252 167.47 332.978 167.47C329.704 167.47 327.05 170.188 327.05 173.541C327.05 176.894 329.704 179.612 332.978 179.612Z" fill="#37A8EB"/>
<path d="M349.212 179.612C352.486 179.612 355.14 176.894 355.14 173.541C355.14 170.188 352.486 167.47 349.212 167.47C345.938 167.47 343.284 170.188 343.284 173.541C343.284 176.894 345.938 179.612 349.212 179.612Z" fill="#37A8EB"/>
<path d="M365.538 179.612C368.812 179.612 371.466 176.894 371.466 173.541C371.466 170.188 368.812 167.47 365.538 167.47C362.263 167.47 359.609 170.188 359.609 173.541C359.609 176.894 362.263 179.612 365.538 179.612Z" fill="#3BD9E3"/>
<path d="M381.863 179.612C385.137 179.612 387.791 176.894 387.791 173.541C387.791 170.188 385.137 167.47 381.863 167.47C378.589 167.47 375.935 170.188 375.935 173.541C375.935 176.894 378.589 179.612 381.863 179.612Z" fill="#37A8EB"/>
<path d="M398.188 179.612C401.462 179.612 404.116 176.894 404.116 173.541C404.116 170.188 401.462 167.47 398.188 167.47C394.914 167.47 392.259 170.188 392.259 173.541C392.259 176.894 394.914 179.612 398.188 179.612Z" fill="#37A8EB"/>
<path d="M54.8124 196.238C58.0864 196.238 60.7405 193.52 60.7405 190.167C60.7405 186.814 58.0864 184.095 54.8124 184.095C51.5384 184.095 48.8843 186.814 48.8843 190.167C48.8843 193.52 51.5384 196.238 54.8124 196.238Z" fill="#37A8EB"/>
<path d="M71.1374 196.238C74.4114 196.238 77.0655 193.52 77.0655 190.167C77.0655 186.814 74.4114 184.095 71.1374 184.095C67.8633 184.095 65.2092 186.814 65.2092 190.167C65.2092 193.52 67.8633 196.238 71.1374 196.238Z" fill="#37A8EB"/>
<path d="M87.463 196.238C90.7371 196.238 93.3912 193.52 93.3912 190.167C93.3912 186.814 90.7371 184.095 87.463 184.095C84.189 184.095 81.5349 186.814 81.5349 190.167C81.5349 193.52 84.189 196.238 87.463 196.238Z" fill="#37A8EB"/>
<path d="M103.697 196.238C106.971 196.238 109.625 193.52 109.625 190.167C109.625 186.814 106.971 184.095 103.697 184.095C100.423 184.095 97.7688 186.814 97.7688 190.167C97.7688 193.52 100.423 196.238 103.697 196.238Z" fill="#37A8EB"/>
<path d="M120.022 196.238C123.296 196.238 125.95 193.52 125.95 190.167C125.95 186.814 123.296 184.095 120.022 184.095C116.748 184.095 114.094 186.814 114.094 190.167C114.094 193.52 116.748 196.238 120.022 196.238Z" fill="#37A8EB"/>
<path d="M136.347 196.238C139.621 196.238 142.275 193.52 142.275 190.167C142.275 186.814 139.621 184.095 136.347 184.095C133.073 184.095 130.419 186.814 130.419 190.167C130.419 193.52 133.073 196.238 136.347 196.238Z" fill="#37A8EB"/>
<path d="M153.128 196.238C156.402 196.238 159.056 193.52 159.056 190.167C159.056 186.814 156.402 184.095 153.128 184.095C149.854 184.095 147.2 186.814 147.2 190.167C147.2 193.52 149.854 196.238 153.128 196.238Z" fill="#37A8EB"/>
<path d="M169.453 196.238C172.727 196.238 175.381 193.52 175.381 190.167C175.381 186.814 172.727 184.095 169.453 184.095C166.179 184.095 163.525 186.814 163.525 190.167C163.525 193.52 166.179 196.238 169.453 196.238Z" fill="#37A8EB"/>
<path d="M185.687 196.238C188.961 196.238 191.615 193.52 191.615 190.167C191.615 186.814 188.961 184.095 185.687 184.095C182.413 184.095 179.759 186.814 179.759 190.167C179.759 193.52 182.413 196.238 185.687 196.238Z" fill="#37A8EB"/>
<path d="M202.013 196.238C205.287 196.238 207.941 193.52 207.941 190.167C207.941 186.814 205.287 184.095 202.013 184.095C198.739 184.095 196.084 186.814 196.084 190.167C196.084 193.52 198.739 196.238 202.013 196.238Z" fill="#37A8EB"/>
<path d="M218.337 196.238C221.611 196.238 224.265 193.52 224.265 190.167C224.265 186.814 221.611 184.095 218.337 184.095C215.063 184.095 212.409 186.814 212.409 190.167C212.409 193.52 215.063 196.238 218.337 196.238Z" fill="#37A8EB"/>
<path d="M234.662 196.238C237.937 196.238 240.591 193.52 240.591 190.167C240.591 186.814 237.937 184.095 234.662 184.095C231.388 184.095 228.734 186.814 228.734 190.167C228.734 193.52 231.388 196.238 234.662 196.238Z" fill="#37A8EB"/>
<path d="M250.988 196.238C254.262 196.238 256.916 193.52 256.916 190.167C256.916 186.814 254.262 184.095 250.988 184.095C247.714 184.095 245.06 186.814 245.06 190.167C245.06 193.52 247.714 196.238 250.988 196.238Z" fill="#37A8EB"/>
<path d="M267.222 196.238C270.496 196.238 273.15 193.52 273.15 190.167C273.15 186.814 270.496 184.095 267.222 184.095C263.948 184.095 261.293 186.814 261.293 190.167C261.293 193.52 263.948 196.238 267.222 196.238Z" fill="#37A8EB"/>
<path d="M283.547 196.238C286.821 196.238 289.475 193.52 289.475 190.167C289.475 186.814 286.821 184.095 283.547 184.095C280.273 184.095 277.619 186.814 277.619 190.167C277.619 193.52 280.273 196.238 283.547 196.238Z" fill="#37A8EB"/>
<path d="M299.872 196.238C303.146 196.238 305.8 193.52 305.8 190.167C305.8 186.814 303.146 184.095 299.872 184.095C296.598 184.095 293.944 186.814 293.944 190.167C293.944 193.52 296.598 196.238 299.872 196.238Z" fill="#37A8EB"/>
<path d="M316.653 196.238C319.927 196.238 322.582 193.52 322.582 190.167C322.582 186.814 319.927 184.095 316.653 184.095C313.379 184.095 310.725 186.814 310.725 190.167C310.725 193.52 313.379 196.238 316.653 196.238Z" fill="#37A8EB"/>
<path d="M332.978 196.238C336.252 196.238 338.906 193.52 338.906 190.167C338.906 186.814 336.252 184.095 332.978 184.095C329.704 184.095 327.05 186.814 327.05 190.167C327.05 193.52 329.704 196.238 332.978 196.238Z" fill="#37A8EB"/>
<path d="M349.212 196.238C352.486 196.238 355.14 193.52 355.14 190.167C355.14 186.814 352.486 184.095 349.212 184.095C345.938 184.095 343.284 186.814 343.284 190.167C343.284 193.52 345.938 196.238 349.212 196.238Z" fill="#37A8EB"/>
<path d="M365.538 196.238C368.812 196.238 371.466 193.52 371.466 190.167C371.466 186.814 368.812 184.095 365.538 184.095C362.263 184.095 359.609 186.814 359.609 190.167C359.609 193.52 362.263 196.238 365.538 196.238Z" fill="#3BD9E3"/>
<path d="M381.863 196.238C385.137 196.238 387.791 193.52 387.791 190.167C387.791 186.814 385.137 184.095 381.863 184.095C378.589 184.095 375.935 186.814 375.935 190.167C375.935 193.52 378.589 196.238 381.863 196.238Z" fill="#3BD9E3"/>
<path d="M103.697 212.957C106.971 212.957 109.625 210.239 109.625 206.886C109.625 203.533 106.971 200.814 103.697 200.814C100.423 200.814 97.7688 203.533 97.7688 206.886C97.7688 210.239 100.423 212.957 103.697 212.957Z" fill="#37A8EB"/>
<path d="M120.022 212.957C123.296 212.957 125.95 210.239 125.95 206.886C125.95 203.533 123.296 200.814 120.022 200.814C116.748 200.814 114.094 203.533 114.094 206.886C114.094 210.239 116.748 212.957 120.022 212.957Z" fill="#37A8EB"/>
<path d="M136.347 212.957C139.621 212.957 142.275 210.239 142.275 206.886C142.275 203.533 139.621 200.814 136.347 200.814C133.073 200.814 130.419 203.533 130.419 206.886C130.419 210.239 133.073 212.957 136.347 212.957Z" fill="#37A8EB"/>
<path d="M153.128 212.957C156.402 212.957 159.056 210.239 159.056 206.886C159.056 203.533 156.402 200.814 153.128 200.814C149.854 200.814 147.2 203.533 147.2 206.886C147.2 210.239 149.854 212.957 153.128 212.957Z" fill="#37A8EB"/>
<path d="M169.453 212.957C172.727 212.957 175.381 210.239 175.381 206.886C175.381 203.533 172.727 200.814 169.453 200.814C166.179 200.814 163.525 203.533 163.525 206.886C163.525 210.239 166.179 212.957 169.453 212.957Z" fill="#37A8EB"/>
<path d="M185.687 212.957C188.961 212.957 191.615 210.239 191.615 206.886C191.615 203.533 188.961 200.814 185.687 200.814C182.413 200.814 179.759 203.533 179.759 206.886C179.759 210.239 182.413 212.957 185.687 212.957Z" fill="#37A8EB"/>
<path d="M202.013 212.957C205.287 212.957 207.941 210.239 207.941 206.886C207.941 203.533 205.287 200.814 202.013 200.814C198.739 200.814 196.084 203.533 196.084 206.886C196.084 210.239 198.739 212.957 202.013 212.957Z" fill="#37A8EB"/>
<path d="M218.337 212.957C221.611 212.957 224.265 210.239 224.265 206.886C224.265 203.533 221.611 200.814 218.337 200.814C215.063 200.814 212.409 203.533 212.409 206.886C212.409 210.239 215.063 212.957 218.337 212.957Z" fill="#37A8EB"/>
<path d="M234.662 212.957C237.937 212.957 240.591 210.239 240.591 206.886C240.591 203.533 237.937 200.814 234.662 200.814C231.388 200.814 228.734 203.533 228.734 206.886C228.734 210.239 231.388 212.957 234.662 212.957Z" fill="#37A8EB"/>
<path d="M250.988 212.957C254.262 212.957 256.916 210.239 256.916 206.886C256.916 203.533 254.262 200.814 250.988 200.814C247.714 200.814 245.06 203.533 245.06 206.886C245.06 210.239 247.714 212.957 250.988 212.957Z" fill="#37A8EB"/>
<path d="M267.222 212.957C270.496 212.957 273.15 210.239 273.15 206.886C273.15 203.533 270.496 200.814 267.222 200.814C263.948 200.814 261.293 203.533 261.293 206.886C261.293 210.239 263.948 212.957 267.222 212.957Z" fill="#37A8EB"/>
<path d="M283.547 212.957C286.821 212.957 289.475 210.239 289.475 206.886C289.475 203.533 286.821 200.814 283.547 200.814C280.273 200.814 277.619 203.533 277.619 206.886C277.619 210.239 280.273 212.957 283.547 212.957Z" fill="#37A8EB"/>
<path d="M299.872 212.957C303.146 212.957 305.8 210.239 305.8 206.886C305.8 203.533 303.146 200.814 299.872 200.814C296.598 200.814 293.944 203.533 293.944 206.886C293.944 210.239 296.598 212.957 299.872 212.957Z" fill="#37A8EB"/>
<path d="M316.653 212.957C319.927 212.957 322.582 210.239 322.582 206.886C322.582 203.533 319.927 200.814 316.653 200.814C313.379 200.814 310.725 203.533 310.725 206.886C310.725 210.239 313.379 212.957 316.653 212.957Z" fill="#37A8EB"/>
<path d="M332.978 212.957C336.252 212.957 338.906 210.239 338.906 206.886C338.906 203.533 336.252 200.814 332.978 200.814C329.704 200.814 327.05 203.533 327.05 206.886C327.05 210.239 329.704 212.957 332.978 212.957Z" fill="#37A8EB"/>
<path d="M349.212 212.957C352.486 212.957 355.14 210.239 355.14 206.886C355.14 203.533 352.486 200.814 349.212 200.814C345.938 200.814 343.284 203.533 343.284 206.886C343.284 210.239 345.938 212.957 349.212 212.957Z" fill="#37A8EB"/>
<path d="M365.538 212.957C368.812 212.957 371.466 210.239 371.466 206.886C371.466 203.533 368.812 200.814 365.538 200.814C362.263 200.814 359.609 203.533 359.609 206.886C359.609 210.239 362.263 212.957 365.538 212.957Z" fill="#37A8EB"/>
<path d="M381.863 212.957C385.137 212.957 387.791 210.239 387.791 206.886C387.791 203.533 385.137 200.814 381.863 200.814C378.589 200.814 375.935 203.533 375.935 206.886C375.935 210.239 378.589 212.957 381.863 212.957Z" fill="#DBB906"/>
<path d="M169.453 229.676C172.727 229.676 175.381 226.957 175.381 223.604C175.381 220.251 172.727 217.533 169.453 217.533C166.179 217.533 163.525 220.251 163.525 223.604C163.525 226.957 166.179 229.676 169.453 229.676Z" fill="#37A8EB"/>
<path d="M185.687 229.676C188.961 229.676 191.615 226.957 191.615 223.604C191.615 220.251 188.961 217.533 185.687 217.533C182.413 217.533 179.759 220.251 179.759 223.604C179.759 226.957 182.413 229.676 185.687 229.676Z" fill="#37A8EB"/>
<path d="M202.013 229.676C205.287 229.676 207.941 226.957 207.941 223.604C207.941 220.251 205.287 217.533 202.013 217.533C198.739 217.533 196.084 220.251 196.084 223.604C196.084 226.957 198.739 229.676 202.013 229.676Z" fill="#37A8EB"/>
<path d="M218.337 229.676C221.611 229.676 224.265 226.957 224.265 223.604C224.265 220.251 221.611 217.533 218.337 217.533C215.063 217.533 212.409 220.251 212.409 223.604C212.409 226.957 215.063 229.676 218.337 229.676Z" fill="#37A8EB"/>
<path d="M234.662 229.676C237.937 229.676 240.591 226.957 240.591 223.604C240.591 220.251 237.937 217.533 234.662 217.533C231.388 217.533 228.734 220.251 228.734 223.604C228.734 226.957 231.388 229.676 234.662 229.676Z" fill="#37A8EB"/>
<path d="M250.988 229.676C254.262 229.676 256.916 226.957 256.916 223.604C256.916 220.251 254.262 217.533 250.988 217.533C247.714 217.533 245.06 220.251 245.06 223.604C245.06 226.957 247.714 229.676 250.988 229.676Z" fill="#37A8EB"/>
<path d="M267.222 229.676C270.496 229.676 273.15 226.957 273.15 223.604C273.15 220.251 270.496 217.533 267.222 217.533C263.948 217.533 261.293 220.251 261.293 223.604C261.293 226.957 263.948 229.676 267.222 229.676Z" fill="#37A8EB"/>
<path d="M283.547 229.676C286.821 229.676 289.475 226.957 289.475 223.604C289.475 220.251 286.821 217.533 283.547 217.533C280.273 217.533 277.619 220.251 277.619 223.604C277.619 226.957 280.273 229.676 283.547 229.676Z" fill="#37A8EB"/>
<path d="M299.872 229.676C303.146 229.676 305.8 226.957 305.8 223.604C305.8 220.251 303.146 217.533 299.872 217.533C296.598 217.533 293.944 220.251 293.944 223.604C293.944 226.957 296.598 229.676 299.872 229.676Z" fill="#37A8EB"/>
<path d="M316.653 229.676C319.927 229.676 322.582 226.957 322.582 223.604C322.582 220.251 319.927 217.533 316.653 217.533C313.379 217.533 310.725 220.251 310.725 223.604C310.725 226.957 313.379 229.676 316.653 229.676Z" fill="#37A8EB"/>
<path d="M349.212 229.676C352.486 229.676 355.14 226.957 355.14 223.604C355.14 220.251 352.486 217.533 349.212 217.533C345.938 217.533 343.284 220.251 343.284 223.604C343.284 226.957 345.938 229.676 349.212 229.676Z" fill="#37A8EB"/>
<path d="M365.538 229.676C368.812 229.676 371.466 226.957 371.466 223.604C371.466 220.251 368.812 217.533 365.538 217.533C362.263 217.533 359.609 220.251 359.609 223.604C359.609 226.957 362.263 229.676 365.538 229.676Z" fill="#37A8EB"/>
<path d="M381.863 229.676C385.137 229.676 387.791 226.957 387.791 223.604C387.791 220.251 385.137 217.533 381.863 217.533C378.589 217.533 375.935 220.251 375.935 223.604C375.935 226.957 378.589 229.676 381.863 229.676Z" fill="#37A8EB"/>
<path d="M202.013 246.862C205.287 246.862 207.941 244.144 207.941 240.791C207.941 237.438 205.287 234.719 202.013 234.719C198.739 234.719 196.084 237.438 196.084 240.791C196.084 244.144 198.739 246.862 202.013 246.862Z" fill="#37A8EB"/>
<path d="M218.337 246.862C221.611 246.862 224.265 244.144 224.265 240.791C224.265 237.438 221.611 234.719 218.337 234.719C215.063 234.719 212.409 237.438 212.409 240.791C212.409 244.144 215.063 246.862 218.337 246.862Z" fill="#37A8EB"/>
<path d="M234.662 246.862C237.937 246.862 240.591 244.144 240.591 240.791C240.591 237.438 237.937 234.719 234.662 234.719C231.388 234.719 228.734 237.438 228.734 240.791C228.734 244.144 231.388 246.862 234.662 246.862Z" fill="#37A8EB"/>
<path d="M250.988 246.862C254.262 246.862 256.916 244.144 256.916 240.791C256.916 237.438 254.262 234.719 250.988 234.719C247.714 234.719 245.06 237.438 245.06 240.791C245.06 244.144 247.714 246.862 250.988 246.862Z" fill="#37A8EB"/>
<path d="M332.642 229.862C335.916 229.862 338.57 227.144 338.57 223.791C338.57 220.438 335.916 217.719 332.642 217.719C329.368 217.719 326.714 220.438 326.714 223.791C326.714 227.144 329.368 229.862 332.642 229.862Z" fill="#37A8EB"/>
<path d="M381.863 246.862C385.137 246.862 387.791 244.144 387.791 240.791C387.791 237.438 385.137 234.719 381.863 234.719C378.589 234.719 375.935 237.438 375.935 240.791C375.935 244.144 378.589 246.862 381.863 246.862Z" fill="#37A8EB"/>
<path d="M398.188 246.862C401.462 246.862 404.116 244.144 404.116 240.791C404.116 237.438 401.462 234.719 398.188 234.719C394.914 234.719 392.259 237.438 392.259 240.791C392.259 244.144 394.914 246.862 398.188 246.862Z" fill="#37A8EB"/>
<path d="M218.337 263.581C221.611 263.581 224.265 260.863 224.265 257.51C224.265 254.157 221.611 251.438 218.337 251.438C215.063 251.438 212.409 254.157 212.409 257.51C212.409 260.863 215.063 263.581 218.337 263.581Z" fill="#37A8EB"/>
<path d="M234.662 263.581C237.937 263.581 240.591 260.863 240.591 257.51C240.591 254.157 237.937 251.438 234.662 251.438C231.388 251.438 228.734 254.157 228.734 257.51C228.734 260.863 231.388 263.581 234.662 263.581Z" fill="#37A8EB"/>
<path d="M398.188 263.581C401.462 263.581 404.116 260.863 404.116 257.51C404.116 254.157 401.462 251.438 398.188 251.438C394.914 251.438 392.259 254.157 392.259 257.51C392.259 260.863 394.914 263.581 398.188 263.581Z" fill="#37A8EB"/>
<path d="M234.662 280.206C237.937 280.206 240.591 277.488 240.591 274.135C240.591 270.782 237.937 268.064 234.662 268.064C231.388 268.064 228.734 270.782 228.734 274.135C228.734 277.488 231.388 280.206 234.662 280.206Z" fill="#37A8EB"/>
</svg>
