<svg width="24" height="24" viewBox="0 0 24 24" fill="none" xmlns="http://www.w3.org/2000/svg">
<circle cx="12" cy="12" r="11.5" fill="white" fill-opacity="0.5" stroke="#37A8EB"/>
<path d="M10.7109 14.5078C10.7109 13.7786 10.7995 13.1979 10.9766 12.7656C11.1536 12.3333 11.4766 11.9089 11.9453 11.4922C12.4193 11.0703 12.7344 10.7292 12.8906 10.4688C13.0469 10.2031 13.125 9.92448 13.125 9.63281C13.125 8.7526 12.7188 8.3125 11.9062 8.3125C11.5208 8.3125 11.2109 8.43229 10.9766 8.67188C10.7474 8.90625 10.6276 9.23177 10.6172 9.64844H8.35156C8.36198 8.65365 8.68229 7.875 9.3125 7.3125C9.94792 6.75 10.8125 6.46875 11.9062 6.46875C13.0104 6.46875 13.8672 6.73698 14.4766 7.27344C15.0859 7.80469 15.3906 8.55729 15.3906 9.53125C15.3906 9.97396 15.2917 10.3932 15.0938 10.7891C14.8958 11.1797 14.5495 11.6146 14.0547 12.0938L13.4219 12.6953C13.026 13.0755 12.7995 13.5208 12.7422 14.0312L12.7109 14.5078H10.7109ZM10.4844 16.9062C10.4844 16.5573 10.6016 16.2708 10.8359 16.0469C11.0755 15.8177 11.3802 15.7031 11.75 15.7031C12.1198 15.7031 12.4219 15.8177 12.6562 16.0469C12.8958 16.2708 13.0156 16.5573 13.0156 16.9062C13.0156 17.25 12.8984 17.5339 12.6641 17.7578C12.4349 17.9818 12.1302 18.0938 11.75 18.0938C11.3698 18.0938 11.0625 17.9818 10.8281 17.7578C10.599 17.5339 10.4844 17.25 10.4844 16.9062Z" fill="#37A8EB"/>
</svg>
