<svg width="17" height="16" viewBox="0 0 17 16" fill="none" xmlns="http://www.w3.org/2000/svg">
  <path d="M16.6458 8C16.6458 12.2028 13.0194 15.6458 8.5 15.6458C3.98065 15.6458 0.354167 12.2028 0.354167 8C0.354167 3.79724 3.98065 0.354167 8.5 0.354167C13.0194 0.354167 16.6458 3.79724 16.6458 8Z" fill="white" fill-opacity="0.5" stroke="#37A8EB" stroke-width="0.708333"/>
  <path d="M7.587 9.52637C7.587 9.00987 7.64971 8.59852 7.77515 8.29232C7.90058 7.98611 8.12931 7.68544 8.46134 7.3903C8.79707 7.09147 9.02026 6.84983 9.13094 6.66536C9.24162 6.47721 9.29696 6.27984 9.29696 6.07324C9.29696 5.44976 9.0092 5.13802 8.43368 5.13802C8.16067 5.13802 7.94116 5.22287 7.77515 5.39258C7.61282 5.55859 7.52797 5.78917 7.52059 6.08431H5.91577C5.92315 5.37967 6.15004 4.82812 6.59644 4.42969C7.04652 4.03125 7.65894 3.83203 8.43368 3.83203C9.21579 3.83203 9.82267 4.02203 10.2543 4.40202C10.686 4.77832 10.9018 5.31141 10.9018 6.0013C10.9018 6.31489 10.8317 6.61187 10.6915 6.89225C10.5513 7.16895 10.306 7.477 9.95549 7.81641L9.50724 8.24251C9.22686 8.51183 9.06638 8.82726 9.0258 9.1888L9.00366 9.52637H7.587ZM7.42651 11.2253C7.42651 10.9781 7.50952 10.7752 7.67554 10.6165C7.84524 10.4542 8.06106 10.373 8.323 10.373C8.58493 10.373 8.79891 10.4542 8.96493 10.6165C9.13463 10.7752 9.21948 10.9781 9.21948 11.2253C9.21948 11.4687 9.13647 11.6698 8.97046 11.8285C8.80813 11.9871 8.59231 12.0664 8.323 12.0664C8.05368 12.0664 7.83602 11.9871 7.67 11.8285C7.50768 11.6698 7.42651 11.4687 7.42651 11.2253Z" fill="#37A8EB"/>
</svg>
