<svg width="32" height="26" viewBox="0 0 32 26" fill="none" xmlns="http://www.w3.org/2000/svg">
<g opacity="0.9">
<path d="M16.5924 8.70267C16.5924 7.80049 16.7118 6.92986 16.9341 6.11109C17.8949 2.57055 20.7726 0 24.1727 0C25.6912 0 27.105 0.513095 28.291 1.39605C30.3746 2.94658 31.7529 5.63969 31.7529 8.70267C31.7529 13.3173 28.6248 17.0924 24.6701 17.3865C25.4806 20.7794 27.2041 23.7155 29.5041 25.7958C22.3193 25.4158 16.5924 18.3641 16.5924 9.72052C16.5924 9.52761 16.5962 9.33543 16.6015 9.14361C16.5955 8.9982 16.5924 8.85098 16.5924 8.70267Z" fill="#37A8EB"/>
<path d="M0.16881 8.70267C0.16881 7.80049 0.288515 6.92986 0.510553 6.11109C1.47104 2.57055 4.3487 0 7.74908 0C9.26797 0 10.6811 0.513095 11.8674 1.39605C13.9507 2.94658 15.3293 5.63969 15.3293 8.70267C15.3293 13.3173 12.2012 17.0924 8.24622 17.3865C9.05667 20.7794 10.7802 23.7155 13.0802 25.7958C5.89539 25.4158 0.16881 18.3641 0.16881 9.72052C0.16881 9.52761 0.1726 9.33543 0.177969 9.14361C0.171968 8.9982 0.16881 8.85098 0.16881 8.70267Z" fill="#37A8EB"/>
</g>
</svg>
