<svg width="25" height="24" viewBox="0 0 25 24" fill="none" xmlns="http://www.w3.org/2000/svg">
<path fill-rule="evenodd" clip-rule="evenodd" d="M19.292 7.75C21.0179 7.75 22.417 6.35089 22.417 4.625C22.417 2.89911 21.0179 1.5 19.292 1.5C17.5661 1.5 16.167 2.89911 16.167 4.625C16.167 6.35089 17.5661 7.75 19.292 7.75Z" stroke="#37A8EB" stroke-width="1.5" stroke-linecap="round" stroke-linejoin="round"/>
<path d="M21.5022 6.83398L23.6672 8.99998" stroke="#37A8EB" stroke-width="1.5" stroke-linecap="round" stroke-linejoin="round"/>
<path d="M13.167 7.5H2.66699C1.83856 7.5 1.16699 6.82843 1.16699 6V4.5C1.16699 3.67157 1.83856 3 2.66699 3H13.167" stroke="#37A8EB" stroke-width="1.5" stroke-linecap="round" stroke-linejoin="round"/>
<path d="M3.04199 11.25C3.2491 11.25 3.41699 11.4179 3.41699 11.625C3.41699 11.8321 3.2491 12 3.04199 12C2.83489 12 2.66699 11.8321 2.66699 11.625C2.66699 11.4179 2.83489 11.25 3.04199 11.25" stroke="#37A8EB" stroke-width="1.5" stroke-linecap="round" stroke-linejoin="round"/>
<path d="M6.41699 12H18.417" stroke="#37A8EB" stroke-width="1.5" stroke-linecap="round" stroke-linejoin="round"/>
<path d="M3.04199 16.5C3.2491 16.5 3.41699 16.6679 3.41699 16.875C3.41699 17.0821 3.2491 17.25 3.04199 17.25C2.83489 17.25 2.66699 17.0821 2.66699 16.875C2.66699 16.6679 2.83489 16.5 3.04199 16.5" stroke="#37A8EB" stroke-width="1.5" stroke-linecap="round" stroke-linejoin="round"/>
<path d="M6.41699 17.25H18.417" stroke="#37A8EB" stroke-width="1.5" stroke-linecap="round" stroke-linejoin="round"/>
<path d="M3.04199 21.75C3.2491 21.75 3.41699 21.9179 3.41699 22.125C3.41699 22.3321 3.2491 22.5 3.04199 22.5C2.83489 22.5 2.66699 22.3321 2.66699 22.125C2.66699 21.9179 2.83489 21.75 3.04199 21.75" stroke="#37A8EB" stroke-width="1.5" stroke-linecap="round" stroke-linejoin="round"/>
<path d="M6.41699 22.5H18.417" stroke="#37A8EB" stroke-width="1.5" stroke-linecap="round" stroke-linejoin="round"/>
</svg>
