<svg width="25" height="24" viewBox="0 0 25 24" fill="none" xmlns="http://www.w3.org/2000/svg">
<path d="M1.62817 2.21692L3.12817 4.10892V8.57592C3.08817 10.2639 5.04517 11.7759 6.87717 13.3279" stroke="#37A8EB" stroke-width="1.5" stroke-linecap="round" stroke-linejoin="round"/>
<path d="M6.10929 7.358L7.87829 9.17C8.18196 9.48171 8.62887 9.60774 9.05066 9.50061C9.47245 9.39347 9.80504 9.06946 9.92316 8.65061C10.0413 8.23176 9.92696 7.78171 9.62329 7.47L6.87229 4.663V3.2C6.72325 2.32335 6.38991 1.4883 5.89429 0.75" stroke="#37A8EB" stroke-width="1.5" stroke-linecap="round" stroke-linejoin="round"/>
<path d="M6.87817 8.13806V20.2501C6.87817 21.0785 7.54975 21.7501 8.37817 21.7501H15.8782" stroke="#37A8EB" stroke-width="1.5" stroke-linecap="round" stroke-linejoin="round"/>
<path d="M24.128 21.782L22.628 19.89V15.424C22.663 13.965 21.207 12.638 19.628 11.304V16.622L17.878 14.83C17.4085 14.3481 16.6373 14.338 16.1554 14.8075C15.6736 15.2769 15.6635 16.0481 16.1329 16.53L18.888 19.338V20.8C19.0377 21.6752 19.371 22.5088 19.866 23.246" stroke="#37A8EB" stroke-width="1.5" stroke-linecap="round" stroke-linejoin="round"/>
<path d="M13.8562 18H9.87817" stroke="#37A8EB" stroke-width="1.5" stroke-linecap="round" stroke-linejoin="round"/>
<path d="M11.3782 14.25H9.87817" stroke="#37A8EB" stroke-width="1.5" stroke-linecap="round" stroke-linejoin="round"/>
<path d="M21.1282 5.25C21.1282 7.73528 19.1135 9.75 16.6282 9.75C14.1429 9.75 12.1282 7.73528 12.1282 5.25C12.1282 2.76472 14.1429 0.75 16.6282 0.75" stroke="#37A8EB" stroke-width="1.5" stroke-linecap="round" stroke-linejoin="round"/>
<path d="M21.128 1.87402L17.028 5.97402C16.9221 6.08052 16.7781 6.14041 16.628 6.14041C16.4778 6.14041 16.3338 6.08052 16.228 5.97402L14.939 4.68402" stroke="#37A8EB" stroke-width="1.5" stroke-linecap="round" stroke-linejoin="round"/>
</svg>
