<svg width="13" height="13" viewBox="0 0 13 13" fill="none" xmlns="http://www.w3.org/2000/svg">
<mask id="path-1-inside-1" fill="white">
<path d="M9.8698 8.3871C9.1429 8.3871 8.51423 8.69208 8.08202 9.18768L4.7422 7.51026C4.89937 7.20528 4.97795 6.86217 4.97795 6.5C4.97795 6.13783 4.87972 5.79472 4.7422 5.48974L8.08202 3.81232C8.51423 4.30792 9.16254 4.6129 9.8698 4.6129C11.1664 4.6129 12.247 3.58358 12.247 2.30645C12.247 1.04839 11.1861 0 9.8698 0C8.55352 0 7.49264 1.08651 7.49264 2.34457C7.49264 2.64956 7.55158 2.91642 7.64981 3.18328L4.25105 4.87977C3.81884 4.46041 3.22946 4.21261 2.58115 4.21261C1.30416 4.21261 0.223633 5.261 0.223633 6.51906C0.223633 7.77713 1.28451 8.82551 2.60079 8.82551C3.24911 8.82551 3.83849 8.57771 4.2707 8.15836L7.66945 9.85484C7.57122 10.1217 7.51228 10.3886 7.51228 10.6935C7.51228 11.9516 8.57317 13 9.88944 13C11.2057 13 12.2666 11.9707 12.2666 10.6935C12.2666 9.41642 11.1664 8.3871 9.8698 8.3871ZM9.8698 0.819648C10.7342 0.819648 11.4611 1.50587 11.4611 2.36364C11.4611 3.20235 10.7539 3.90762 9.8698 3.90762C8.98573 3.90762 8.27848 3.20235 8.27848 2.34457C8.27848 1.50587 8.98573 0.819648 9.8698 0.819648ZM2.60079 8.06305C1.73637 8.06305 1.00947 7.37683 1.00947 6.51906C1.00947 5.68035 1.71673 4.97507 2.60079 4.97507C3.46522 4.97507 4.19212 5.66129 4.19212 6.51906C4.19212 7.35777 3.46522 8.06305 2.60079 8.06305ZM9.8698 12.2185C9.00538 12.2185 8.27848 11.5323 8.27848 10.6745C8.27848 9.81672 8.98573 9.1305 9.8698 9.1305C10.7539 9.1305 11.4611 9.81672 11.4611 10.6745C11.4611 11.5323 10.7342 12.2185 9.8698 12.2185Z"/>
</mask>
<path d="M9.8698 8.3871C9.1429 8.3871 8.51423 8.69208 8.08202 9.18768L4.7422 7.51026C4.89937 7.20528 4.97795 6.86217 4.97795 6.5C4.97795 6.13783 4.87972 5.79472 4.7422 5.48974L8.08202 3.81232C8.51423 4.30792 9.16254 4.6129 9.8698 4.6129C11.1664 4.6129 12.247 3.58358 12.247 2.30645C12.247 1.04839 11.1861 0 9.8698 0C8.55352 0 7.49264 1.08651 7.49264 2.34457C7.49264 2.64956 7.55158 2.91642 7.64981 3.18328L4.25105 4.87977C3.81884 4.46041 3.22946 4.21261 2.58115 4.21261C1.30416 4.21261 0.223633 5.261 0.223633 6.51906C0.223633 7.77713 1.28451 8.82551 2.60079 8.82551C3.24911 8.82551 3.83849 8.57771 4.2707 8.15836L7.66945 9.85484C7.57122 10.1217 7.51228 10.3886 7.51228 10.6935C7.51228 11.9516 8.57317 13 9.88944 13C11.2057 13 12.2666 11.9707 12.2666 10.6935C12.2666 9.41642 11.1664 8.3871 9.8698 8.3871ZM9.8698 0.819648C10.7342 0.819648 11.4611 1.50587 11.4611 2.36364C11.4611 3.20235 10.7539 3.90762 9.8698 3.90762C8.98573 3.90762 8.27848 3.20235 8.27848 2.34457C8.27848 1.50587 8.98573 0.819648 9.8698 0.819648ZM2.60079 8.06305C1.73637 8.06305 1.00947 7.37683 1.00947 6.51906C1.00947 5.68035 1.71673 4.97507 2.60079 4.97507C3.46522 4.97507 4.19212 5.66129 4.19212 6.51906C4.19212 7.35777 3.46522 8.06305 2.60079 8.06305ZM9.8698 12.2185C9.00538 12.2185 8.27848 11.5323 8.27848 10.6745C8.27848 9.81672 8.98573 9.1305 9.8698 9.1305C10.7539 9.1305 11.4611 9.81672 11.4611 10.6745C11.4611 11.5323 10.7342 12.2185 9.8698 12.2185Z" fill="#37A8EB"/>
<path d="M8.08202 9.18768L7.63319 10.0813L8.32607 10.4293L8.83568 9.84495L8.08202 9.18768ZM4.7422 7.51026L3.85329 7.05218L3.39043 7.95038L4.29338 8.40389L4.7422 7.51026ZM4.7422 5.48974L4.29338 4.59611L3.43638 5.02654L3.83059 5.90079L4.7422 5.48974ZM8.08202 3.81232L8.83568 3.15505L8.32607 2.5707L7.63319 2.9187L8.08202 3.81232ZM7.64981 3.18328L8.09641 4.07802L8.89755 3.67813L8.58825 2.83785L7.64981 3.18328ZM4.25105 4.87977L3.5547 5.59747L4.06344 6.09107L4.69766 5.7745L4.25105 4.87977ZM4.2707 8.15836L4.7173 7.26363L4.08308 6.94706L3.57435 7.44066L4.2707 8.15836ZM7.66945 9.85484L8.60789 10.2003L8.91719 9.35999L8.11606 8.96011L7.66945 9.85484ZM9.8698 7.3871C8.85063 7.3871 7.94827 7.81958 7.32836 8.53042L8.83568 9.84495C9.08018 9.56458 9.43517 9.3871 9.8698 9.3871V7.3871ZM8.53084 8.29406L5.19102 6.61664L4.29338 8.40389L7.63319 10.0813L8.53084 8.29406ZM5.63111 7.96835C5.86726 7.5101 5.97795 7.00796 5.97795 6.5H3.97795C3.97795 6.71639 3.93148 6.90046 3.85329 7.05218L5.63111 7.96835ZM5.97795 6.5C5.97795 5.95788 5.83152 5.47278 5.65381 5.07868L3.83059 5.90079C3.92793 6.11666 3.97795 6.31778 3.97795 6.5H5.97795ZM5.19102 6.38336L8.53084 4.70594L7.63319 2.9187L4.29338 4.59611L5.19102 6.38336ZM7.32836 4.46958C7.95122 5.1838 8.87474 5.6129 9.8698 5.6129V3.6129C9.45035 3.6129 9.07724 3.43204 8.83568 3.15505L7.32836 4.46958ZM9.8698 5.6129C11.6846 5.6129 13.247 4.16939 13.247 2.30645H11.247C11.247 2.99776 10.6483 3.6129 9.8698 3.6129V5.6129ZM13.247 2.30645C13.247 0.473149 11.7151 -1 9.8698 -1V1C10.657 1 11.247 1.62362 11.247 2.30645H13.247ZM9.8698 -1C8.00314 -1 6.49264 0.532317 6.49264 2.34457H8.49264C8.49264 1.6407 9.10389 1 9.8698 1V-1ZM6.49264 2.34457C6.49264 2.78897 6.58059 3.17344 6.71136 3.52872L8.58825 2.83785C8.52256 2.65941 8.49264 2.51015 8.49264 2.34457H6.49264ZM7.2032 2.28855L3.80445 3.98503L4.69766 5.7745L8.09641 4.07802L7.2032 2.28855ZM4.94741 4.16207C4.32823 3.5613 3.48893 3.21261 2.58115 3.21261V5.21261C2.97 5.21261 3.30946 5.35952 3.5547 5.59747L4.94741 4.16207ZM2.58115 3.21261C0.775112 3.21261 -0.776367 4.68576 -0.776367 6.51906H1.22363C1.22363 5.83624 1.83321 5.21261 2.58115 5.21261V3.21261ZM-0.776367 6.51906C-0.776367 8.35236 0.755466 9.82551 2.60079 9.82551V7.82551C1.81356 7.82551 1.22363 7.20189 1.22363 6.51906H-0.776367ZM2.60079 9.82551C3.50858 9.82551 4.34787 9.47682 4.96705 8.87606L3.57435 7.44066C3.32911 7.67861 2.98964 7.82551 2.60079 7.82551V9.82551ZM3.8241 9.05309L7.22285 10.7496L8.11606 8.96011L4.7173 7.26363L3.8241 9.05309ZM6.73101 9.50941C6.60023 9.86469 6.51228 10.2492 6.51228 10.6935H8.51228C8.51228 10.528 8.54221 10.3787 8.60789 10.2003L6.73101 9.50941ZM6.51228 10.6935C6.51228 12.5269 8.04412 14 9.88944 14V12C9.10221 12 8.51228 11.3764 8.51228 10.6935H6.51228ZM9.88944 14C11.7293 14 13.2666 12.5512 13.2666 10.6935H11.2666C11.2666 11.3901 10.6821 12 9.88944 12V14ZM13.2666 10.6935C13.2666 8.82019 11.6737 7.3871 9.8698 7.3871V9.3871C10.6591 9.3871 11.2666 10.0127 11.2666 10.6935H13.2666ZM9.8698 1.81965C10.2188 1.81965 10.4611 2.09428 10.4611 2.36364H12.4611C12.4611 0.917452 11.2497 -0.180352 9.8698 -0.180352V1.81965ZM10.4611 2.36364C10.4611 2.62973 10.2221 2.90762 9.8698 2.90762V4.90763C11.2856 4.90763 12.4611 3.77496 12.4611 2.36364H10.4611ZM9.8698 2.90762C9.52548 2.90762 9.27848 2.63761 9.27848 2.34457H7.27848C7.27848 3.76708 8.44598 4.90763 9.8698 4.90763V2.90762ZM9.27848 2.34457C9.27848 2.09435 9.50111 1.81965 9.8698 1.81965V-0.180352C8.47035 -0.180352 7.27848 0.917384 7.27848 2.34457H9.27848ZM2.60079 7.06305C2.25182 7.06305 2.00947 6.78842 2.00947 6.51906H0.00947113C0.00947113 7.96525 1.22092 9.06305 2.60079 9.06305V7.06305ZM2.00947 6.51906C2.00947 6.25297 2.24846 5.97507 2.60079 5.97507V3.97507C1.185 3.97507 0.00947113 5.10773 0.00947113 6.51906H2.00947ZM2.60079 5.97507C2.94977 5.97507 3.19212 6.24971 3.19212 6.51906H5.19212C5.19212 5.07288 3.98066 3.97507 2.60079 3.97507V5.97507ZM3.19212 6.51906C3.19212 6.77724 2.94161 7.06305 2.60079 7.06305V9.06305C3.98882 9.06305 5.19212 7.93831 5.19212 6.51906H3.19212ZM9.8698 11.2185C9.52082 11.2185 9.27848 10.9438 9.27848 10.6745H7.27848C7.27848 12.1207 8.48993 13.2185 9.8698 13.2185V11.2185ZM9.27848 10.6745C9.27848 10.3973 9.50934 10.1305 9.8698 10.1305V8.1305C8.46212 8.1305 7.27848 9.23618 7.27848 10.6745H9.27848ZM9.8698 10.1305C10.2303 10.1305 10.4611 10.3973 10.4611 10.6745H12.4611C12.4611 9.23618 11.2775 8.1305 9.8698 8.1305V10.1305ZM10.4611 10.6745C10.4611 10.9438 10.2188 11.2185 9.8698 11.2185V13.2185C11.2497 13.2185 12.4611 12.1207 12.4611 10.6745H10.4611Z" fill="#37A8EB" mask="url(#path-1-inside-1)"/>
</svg>
